<svg version="1.2" xmlns="http://www.w3.org/2000/svg" viewBox="0 0 1080 1080" width="1080" height="1080">
	<style>
		.s0 { fill: #000000 } 
	</style>
	<g id="&lt;Group&gt;">
		<g id="&lt;Group&gt;">
			<path id="&lt;Compound Path&gt;" fill-rule="evenodd" class="s0" d="m361.74 197.18c-8.09-6.35-14.35-10.92-16.23-12.37-6.38-4.68-12.45-9.7-18.35-14.34-5.57-5.09-10.63-10.39-15.57-15.26-9.3-10.25-17.25-19.8-23.54-28.07-12.76-16.44-20.45-26.73-20.45-26.73 0 0 8.79 9.42 22.59 24.93 14 15.38 32.46 37.16 58.67 55 1.9 1.47 8.14 5.89 16.42 12.19 8.34 6.1 18.63 14.44 28.32 23.17q3.87 3.65 7.69 7.23-0.24-0.42-0.48-0.85c-1.32-2.18-2.65-4.61-3.99-7.13q-0.19-0.16-0.34-0.31c-1.9-1.67-53.51-46.22-56.65-49.07-21.25-18.4-39.49-36.41-50.98-50.92-6.12-6.9-10.12-13.28-13.19-17.4-2.96-4.21-4.59-6.54-4.59-6.54 0 0 1.88 2.14 5.28 6 3.47 3.8 7.99 9.7 14.59 16.09 12.43 13.47 31.38 30.24 52.54 48.55 2.55 2.32 14.86 12.5 28.93 24.15-1.62-2.27-3.24-4.58-4.76-6.98-9.71-14.62-48.01-75.35-49.93-78.25-3.67-5.97-7.19-10.34-9.51-13.5-2.32-3.16-3.61-4.92-3.61-4.92 0 0 1.52 1.55 4.26 4.34 2.72 2.81 6.84 6.83 11.09 12.42q3.31 4.13 7.17 9c2.42 3.34 5 6.92 7.7 10.69 5.45 7.52 11 16.04 16.85 24.99 1.77 2.66 11.33 17.36 21.27 31.61 2.4 3.63 5.06 7.03 7.49 10.33 1.96 2.56 3.73 5.04 5.48 7.26-8.04-17.78-15.54-34.63-17.32-37.71-11.8-22.19-24.41-41.4-33.18-55.58-8.67-14.25-13.63-23.3-13.63-23.3 0 0 6.1 8.31 15.94 21.73 9.89 13.36 23.76 31.9 35.84 54.6 1.93 3.38 10.85 22.37 19.73 41.04q0.76 1.53 1.54 3.08c-2.34-8.28-4.54-16.31-6.66-22.76-2.68-7.58-4.65-13.25-5.45-14.92-9.47-22.82-20.32-42.56-28.56-56.64-4.18-7.01-13.68-22.66-13.68-22.66 0 0 1.58 1.99 4.42 5.57 2.87 3.58 6.82 8.91 11.61 15.57 9.45 13.39 21.68 32.71 31.38 56.04 0.81 1.72 2.93 7.47 5.82 15.18 2.72 7.78 5.58 17.66 8.54 27.37 2.9 9.75 6.3 19.17 9.55 26.32q0.62 1.42 1.23 2.69c0.23 0.37 0.47 0.73 0.65 1.04 0.44 0.67 0.7 0.84 0.81 1.18q-0.72-2.38-1.27-4.82c-4.94-26.5-11.4-52.58-12.7-57.35-8.25-31.76-17.92-59.84-26.32-79.63-2.13-4.93-3.8-9.53-5.7-13.36-1.85-3.86-8.75-18.38-8.75-18.38 0 0 8.16 13.87 10.33 17.59 2.2 3.7 4.2 8.17 6.66 12.98 9.73 19.34 20.86 47.35 29.17 79.37 1.31 4.78 8.25 31.06 13.58 57.45 2.49 10.54 8.26 20.37 13.57 28.35-1.46-4.39-2.84-8.88-3.65-13.4-3.25-14.18-17.36-78.84-19.25-86.94-1.97-8.07-4.2-15.76-6.1-23.14-4.37-14.59-8.38-27.74-12.8-38.41-3.83-10.91-8.09-19.23-10.81-25.12-2.71-5.89-4.21-9.14-4.21-9.14 0 0 1.77 3.11 5 8.74 3.17 5.65 8.08 13.71 12.59 24.45 5.1 10.47 9.83 23.53 14.74 38.13 2.17 7.36 4.62 15.08 6.77 23.16 2 8.12 16.89 72.76 20.29 86.72 1.11 5.77 3.02 11.07 4.84 16.21-0.8-2.69-1.5-5.29-1.97-7.74-1.02-4.48-1.91-8.4-2.59-11.45-0.57-3.06-0.98-5.26-1.17-6.3-2.72-13.8-4.39-27.04-6.24-38.96-0.82-5.99-1.73-11.65-2.68-16.91-0.89-5.3-1.67-10.23-2.79-14.64-1-4.45-1.91-8.48-2.7-12.01-1.07-3.47-5.04-16.51-5.04-16.51 0 0 5.32 12.6 6.72 15.98 1.17 3.46 2.36 7.44 3.72 11.85 1.47 4.39 2.61 9.29 3.83 14.56 1.29 5.26 2.51 10.91 3.58 16.88 2.17 11.9 4.56 24.97 7.07 38.7 0.21 1.02 0.57 3.21 1.23 6.21 0.73 2.98 1.66 6.8 2.73 11.18 0.93 4.44 2.58 9.21 4.24 14.26q1.26 3.81 2.56 7.75c1.17 2.55 4.65 10.1 5.19 11.28 0.53 0.47 1.01 0.89 1.5 1.32-2.02-8.97-3.8-18.77-4.8-28.47-2.19-15.88-4.71-31.69-7.24-44.18-2.52-12.48-4.81-21.67-5.63-24.49-4.85-18.89-11.58-36.15-17.42-52.2-5.82-15.95-11.33-30.18-16.96-41.66-5.51-11.55-11.13-20.29-15.56-25.92-2.26-2.79-4.06-4.91-5.44-6.21-1.31-1.37-2-2.09-2-2.09 0 0 0.75 0.67 2.17 1.92 1.48 1.2 3.46 3.18 5.93 5.82 4.88 5.33 11.16 13.82 17.36 25.2 6.34 11.31 12.57 25.43 18.9 41.25 6.28 15.72 13.49 33.27 18.41 52.45 0.84 2.87 3.27 12.16 5.97 24.75 2.7 12.59 5.46 28.53 7.84 44.44 3.24 28.52 12.81 55.2 15.99 64.2-0.52-3.35-6.15-40.31-6.75-44.29-0.71-3.96-1.57-7.95-2.34-11.95-2.97-16.06-6.86-31.95-9.81-44.64-3.42-12.56-5.96-21.91-6.76-24.81-11.14-38.34-24.55-71.98-35.48-95.8-5.16-12.04-10.14-21.43-13.36-28.02-3.25-6.59-5.04-10.24-5.04-10.24 0 0 2.06 3.5 5.8 9.82 3.7 6.35 9.29 15.43 15.12 27.23 12.22 23.29 27.07 56.76 38.32 95.43 0.83 2.91 3.48 12.32 7.06 24.94 3.12 12.73 7.24 28.7 10.43 44.84 0.83 4.02 1.74 8.03 2.49 12.02 0.27 1.56 0.51 3.06 0.76 4.6-0.69-17.19-2.66-34.09-4.12-47.73-2.3-14.4-4-25.13-4.52-28.45-2.39-10.92-4.71-21.58-6.97-31.88q-2.08-7.6-4.07-14.93-2.32-7.22-4.55-14.13c-6.29-18.28-13.5-34.22-19.88-47.44-6.53-13.15-12.19-23.64-16.13-30.86-3.97-7.22-6.16-11.21-6.16-11.21 0 0 2.45 3.84 6.91 10.77 4.4 6.96 10.67 17.11 17.86 30.02 7.04 12.97 14.94 28.76 21.84 47.13q2.42 6.96 4.95 14.23 2.16 7.4 4.41 15.09c2.45 10.36 4.9 21.12 7.27 32.16 0.56 3.35 2.38 14.17 4.83 28.7 1.73 14.63 4.11 33 4.86 51.46 0.47 9.31 1.29 18.26 1.99 26.77 0.56 4.23 1.48 8.28 2.15 12.18 0.37 1.95 0.67 3.87 1.07 5.71q0.83 2.7 1.6 5.26 0.03 0.08 0.05 0.17-0.17-2.26-0.35-4.66c-0.45-6.9-1.27-14.79-2.12-23.13-0.81-8.32-1.46-17.38-2.11-26.13-1.26-35.29-8.38-70.01-9.57-76.36-8.54-42.23-21.75-79.15-32.99-105.09-2.88-6.45-5.11-12.49-7.69-17.48-2.49-5.05-11.8-24.03-11.8-24.03 0 0 10.57 18.33 13.37 23.23 2.88 4.87 5.45 10.77 8.65 17.12 12.56 25.47 27.28 62.38 35.93 105.12 1.2 6.41 8.82 41.47 10.49 77.1 0.5 5.85 0.99 11.51 1.52 17.11 0.11-3.58 0.21-7.17 0.23-10.76 0.92-18.93-0.34-37.85-0.86-52.91-1.54-15-2.7-26.17-3.06-29.63-1.75-11.41-3.92-22.49-5.71-33.24-2.6-10.58-5.12-20.78-7.52-30.51-2.85-9.59-6-18.59-8.67-27.1-0.7-2.11-1.33-4.21-2.06-6.24-0.81-1.99-5.45-13.39-6.88-16.91-5.32-14.26-11.22-25.07-14.85-32.78-3.7-7.67-5.76-11.92-5.76-11.92 0 0 2.33 4.1 6.53 11.51 4.1 7.47 10.64 18.01 16.64 32.08 1.6 3.47 6.75 14.75 7.65 16.73 0.81 2.01 1.51 4.1 2.3 6.21 3.02 8.48 6.48 17.46 9.62 27.09 2.64 9.77 5.5 20.02 8.22 30.71 1.97 10.85 4.25 22.05 6.03 33.61 0.39 3.5 1.65 14.78 3.35 29.95 0.69 15.21 2.16 34.36 1.43 53.46 0.08 19.17-1.59 38.08-0.6 52.8 0.19 4.39 0.61 8.34 1.11 11.87-0.16-5.31-0.17-10.9-0.24-16.72 0.19-9.45 4.01-76.84 4.35-84.72 0.51-15.77 0.14-27.49 0.23-31.13q-0.03-4.53-0.06-9c-0.22-2.96-1.48-20.46-1.88-26.14-0.22-2.83-0.34-5.65-0.63-8.43-0.36-2.75-1.8-13.58-2.15-16.22q-0.72-3.95-1.43-7.79c-3.8-20.53-8.98-38.71-13.72-53.84-4.83-15.12-9.06-27.26-11.98-35.66-2.94-8.39-4.56-13.04-4.56-13.04 0 0 1.92 4.53 5.37 12.73 3.42 8.21 8.3 20.12 13.82 35.07 5.43 14.98 11.32 33.1 15.69 53.83q0.8 3.89 1.64 7.86c0.42 2.69 2.08 13.65 2.5 16.45 0.34 2.81 2.66 31.97 2.89 34.97q0.05 4.52 0.08 9.09c-0.1 3.66 0.38 15.52 0.04 31.4-0.28 7.93-1.86 45.69-2.36 55.61-0.46 9.92-1.04 19.62-1.16 28.92 0.47-8.15 4.87-62.69 6.12-77.69 1.17-14.98 1.79-26.13 1.93-29.58 1.1-22.98 1.32-44.87 0.12-64.7-1.15-19.85-3.77-37.58-6.81-52.31-3.39-14.66-6.96-26.35-9.86-34.27-3-7.9-4.66-12.27-4.66-12.27 0 0 1.95 4.26 5.47 11.95 3.4 7.75 7.66 19.29 11.76 33.93 3.77 14.72 7.11 32.57 8.8 52.63 1.74 20.04 1.87 42.18 0.75 65.29-0.14 3.48-4.12 63.61-5.49 82.42-1.19 18.82-2.56 37.6-1.64 52.14 0.04 1.11 0.17 2.13 0.27 3.17-0.14-14.84 0.09-32.28 1.33-50.04 1.48-20.01 4.35-39.78 6.16-55.53 0.98-7.87 1.69-14.74 2.2-20.08 0.58-5.35 0.89-9.19 0.97-11.01 1.82-24.15 1.32-47.16-1.41-67.94-2.7-20.79-6.92-39.31-10.26-54.88-7.14-31.1-10.86-50.5-10.86-50.5 0 0 5.18 19.04 13.58 49.83 4.03 15.45 8.94 33.87 12.2 54.89 3.29 20.99 4.16 44.6 2.31 69-0.07 1.85-0.37 5.73-0.9 11.13-0.46 5.4-1.12 12.33-2.03 20.22-1.65 15.82-4.31 35.59-5.58 55.33-0.38 6.23-0.61 12.49-0.77 18.66 1.04-7.41 2-14.98 3.03-22.8 2.6-19.76 5.91-39.37 8.04-55.01 1.1-7.83 1.82-14.65 2.5-19.97 0.45-5.33 0.78-9.15 0.94-10.96 0.62-6 0.71-11.95 0.93-17.8 0.37-5.87 0.01-11.61-0.08-17.27 0.07-5.65-0.77-11.22-1.26-16.67q-0.8-8.18-1.57-16c-0.39-5.23-1.21-10.26-1.98-15.17q-1.12-7.38-2.17-14.29c-1.2-9.26-3.04-17.76-4.59-25.55-1.6-7.76-2.78-14.87-4.27-21-1.48-6.14-6.98-29.2-6.98-29.2 0 0 6.87 22.7 8.69 28.77 1.81 6.06 3.33 13.12 5.29 20.84 1.89 7.74 4.07 16.21 5.61 25.47q1.29 6.92 2.65 14.3c0.92 4.92 1.9 9.98 2.42 15.23q0.96 7.89 1.94 16.12c0.61 5.51 1.54 11.08 1.55 16.9 0.18 5.78 0.6 11.69 0.26 17.64-0.18 5.96-0.26 12.02-0.87 18.1-0.15 1.84-0.45 5.71-0.88 11.12-0.64 5.36-1.31 12.28-2.33 20.15-1.99 15.78-5.11 35.43-7.49 55.05-1.18 9.75-2.26 19.79-3.63 29.1-1.29 9.31-2.56 18.05-3.23 25.76-0.74 7.71-0.85 14.37-0.73 19.5 0.1 2.37 0.26 4.37 0.41 6.03 0.52 3.49 0.9 6.07 1.12 7.56q3.28 3.3 5.98 6.3c-0.23-1.53-0.45-3.05-0.69-4.67-1.12-8.65-1.67-18.52-0.89-28.88 0.79-10.39 2.39-20.99 3.68-31.7 3.1-21.33 6.93-42.55 9.7-59.42 2.74-16.88 4.56-29.45 4.88-33.37 3.09-25.97 4.44-50.79 2.13-73.39q-0.55-8.48-1.08-16.52c-0.47-5.33-1.42-10.46-2.07-15.45-0.7-5-2.36-16.75-2.52-17.89-0.25-1.11-1.74-7.64-2.21-9.72-1.96-8.36-3.52-15.97-5.22-22.58-2-6.53-9.44-31.06-9.44-31.06 0 0 8.8 24.12 11.13 30.56 2.02 6.54 3.94 14.12 6.24 22.44 0.57 2.09 2.33 8.61 2.62 9.73 0.2 1.13 2.29 12.93 3.17 17.93 0.82 5.02 1.93 10.19 2.56 15.57q0.74 8.1 1.51 16.64c2.86 22.71 1.85 48.24-1.27 74.39-0.34 3.97-2.06 16.67-4.65 33.64-2.64 16.97-6.25 38.17-9.14 59.39-1.18 10.63-2.69 21.29-3.34 31.21-0.68 9.94-0.08 19.37 1.06 27.54q0.46 3.07 0.9 5.91 0.57 2.43 1.1 4.67c-0.01-0.17-0.05-0.31-0.06-0.49-1.16-7.91-1.27-16.96-0.74-26.42 0.49-9.52 2.22-19.24 3.66-28.96 2.7-19.55 6.67-38.84 9.46-54.25 2.82-15.38 5.04-26.81 5.55-30.38 1.63-11.83 3.75-23.38 4.95-34.52 0.43-5.58 1.37-11.02 1.39-16.41 0.08-5.39 0.37-10.67 0.31-15.83-0.21-20.64-2.57-39.21-4.42-54.79-4.28-31.15-6.93-50.43-6.93-50.43 0 0 0.96 4.77 2.68 13.4 1.69 8.63 4.26 21.1 7 36.61 2.55 15.54 5.64 34.13 6.39 55.1 0.19 5.24 0.02 10.63 0.02 16.12 0.09 5.51-0.75 11.1-1.12 16.81-1.08 11.37-3.11 22.92-4.77 34.86-0.52 3.59-2.62 15.06-5.31 30.52-2.62 15.43-6.39 34.71-8.87 54.11-1.34 9.7-2.95 19.35-3.31 28.43-0.43 9.08-0.25 17.67 0.9 25.14 0.39 3.12 0.92 6 1.5 8.7-0.02-8.56 0.39-18.12 0.78-28.08 0.14-5.08 0.49-10.54 0.76-15.97 0.25-5.45 0.52-10.97 1.33-16.43 2.25-22.01 7.02-43.51 10.43-60.63 3.63-17.09 6.04-29.79 6.83-33.74 4.93-26.19 7.5-51.41 8.3-74.47 0.76-23.05-0.23-43.85-1.86-61.25-1.79-17.39-3.99-31.39-5.74-41.03-1.87-9.62-2.9-14.94-2.9-14.94 0 0 1.33 5.25 3.75 14.76 2.28 9.55 5.17 23.47 7.66 40.89 2.34 17.42 4.04 38.36 3.8 61.67-0.27 23.28-2.53 48.97-7.52 75.38-0.77 3.96-3.26 16.73-6.6 33.89-2.24 11.84-5.09 25.76-7.3 40.35 2.8-13.67 6.31-26.5 9.13-37.42 4.39-16.37 7.58-28.49 8.37-32.31 6.15-25.03 8.61-49.49 9.88-71.9 0.48-5.58 0.65-11.04 0.81-16.35 0.16-5.3 0.41-10.45 0.49-15.44-0.1-9.95 0.12-19.29-0.19-27.73-0.8-16.9-2.12-30.69-1.87-40.23 0.18-4.78 0.33-8.47 0.72-10.96 0.32-2.48 0.47-3.79 0.47-3.79 0 0-0.07 1.32-0.22 3.81-0.25 2.5-0.18 6.19-0.1 10.93 0.27 9.5 2.28 23.07 3.78 40.09 0.68 8.55 0.79 17.85 1.22 27.88 0.09 5.01-0.01 10.2-0.02 15.54-0.01 5.35-0.04 10.86-0.39 16.49-0.74 22.49-2.9 47.51-9.15 72.94-0.8 3.85-3.92 16.14-8.16 32.51-4.05 16.39-9.62 36.89-11.9 57.72-0.96 10.4-1.38 20.81-1.93 31.02-0.6 10.06-1.22 19.5-1.48 27.82-0.33 8.33-0.23 15.52 0.07 21.03 0.12 3.05 0.38 5.52 0.6 7.47 1.02 0.79 2.03 1.59 2.96 2.28 0.64 0.46 1.14 0.93 1.71 1.41-0.2-2.27-0.31-4.63-0.52-7.1-0.2-17.09 1.06-37.68 3.07-58.95l0.69-7.9c0.41-2.61 2.89-18.03 3.68-22.99 1.34-9.97 3.84-19.15 5.56-27.38 3.43-16.5 7.13-28.45 7.97-32.25 15.55-49.08 14.83-95.88 13.49-129.4-1.45-33.62-2.34-54.42-2.34-54.42 0 0 0.51 5.18 1.45 14.55 0.85 9.37 2.41 22.9 3.67 39.71 1.42 16.79 2.49 36.91 1.53 59.31-0.4 5.58-0.58 11.33-1.21 17.17q-1.22 8.75-2.49 17.83c-2.42 11.97-5.47 24.37-8.71 36.68-0.82 3.76-4.42 15.71-7.66 32.08-1.62 8.17-4.01 17.3-5.23 27.15-0.74 4.9-3.04 20.14-3.43 22.71 0 0-1.39 18.16-1.78 23.28-0.38 5.12-0.88 10.13-0.88 15.16-0.29 10-0.76 19.32-0.48 27.4 0.37 4 0.44 7.81 1.18 11.09-0.02-11.85 0.39-25.53 1.36-39.38 0.76-8.27 1.41-16.57 2.26-24.41 1.2-7.78 2.36-15.15 3.38-21.68 2.16-13.03 4.36-22.59 4.85-25.6 3.96-19.81 8.34-38.5 12.12-55.51 3.58-17.05 7.01-32.37 8.85-45.41 0.96-6.5 2.26-12.36 2.68-17.57 0.51-5.21 2.51-24.78 2.51-24.78 0 0-0.59 19.69-0.75 24.95-0.1 5.27-1.05 11.18-1.67 17.78-1.17 13.21-3.92 28.75-7.01 45.97-3.46 17.1-7.26 35.92-11.25 55.66-0.49 2.98-2.58 12.54-4.58 25.46-0.92 6.47-1.97 13.77-3.07 21.47-0.74 7.73-1.26 15.9-1.93 24.03q-0.39 6.75-0.62 13.41c1.55-9.25 23.49-112.99 25.13-120.78 2.73-12.91 4.68-25.62 7.01-37.83 1.14-6.11 2.28-12.11 2.91-18 0.78-5.89 1.6-11.65 1.86-17.33 1.74-22.64 1.27-43.23-0.36-60.39-0.65-8.61-1.75-16.34-2.56-23.16-1.09-6.77-1.89-12.64-2.76-17.39-1.81-9.5-2.83-14.76-2.83-14.76 0 0 1.31 5.2 3.69 14.58 1.12 4.72 2.23 10.54 3.65 17.29 1.13 6.79 2.58 14.52 3.59 23.14 2.33 17.21 3.52 37.99 2.28 61.01-0.13 5.77-0.85 11.64-1.53 17.66-0.55 6.03-1.6 12.07-2.68 18.22-2.18 12.28-4.06 25.1-6.79 38.04-0.79 3.91-3.32 16.5-6.74 33.41-3.43 16.87-8.1 38.04-12.05 59.21-1.95 10.58-4.29 21.14-5.73 31.17-1.53 10.04-2.5 19.51-2.75 27.86-0.31 9.68 0.57 17.68 1.5 23.45q1.09 1.34 1.92 2.54c0.01-1.28 0.01-2.54 0.03-3.88 0.34-8.34 1.19-17.68 2.07-27.43 0.43-4.91 1.8-20.24 2.05-22.84l1.14-7.77c3.01-20.76 7.89-41.12 12.04-57.19 4.18-16.03 7.3-27.97 8.25-31.67 6.39-24.57 11.71-48.01 14.61-69.71 1.68-10.81 2.34-21.19 3.21-30.9 0.25-9.72 0.97-18.79 0.65-27.08q-0.07-6.22-0.14-11.83c-0.13-3.74-0.4-7.26-0.59-10.55-0.34-6.59-0.68-12.27-1.26-16.88-0.93-9.26-1.44-14.38-1.44-14.38 0 0 0.82 5.08 2.31 14.27 0.84 4.6 1.48 10.26 2.17 16.85 0.32 3.3 0.77 6.81 1.08 10.55q0.31 5.64 0.65 11.9c0.68 8.33 0.31 17.49 0.39 27.33-0.56 9.81-0.92 20.33-2.35 31.31-2.41 22-7.48 45.93-13.87 70.5-0.94 3.71-3.95 15.67-8 31.72-3.98 16.04-8.61 36.26-11.37 56.65l-0.45 3.23c3.34-21.2 9.22-41.75 13.93-57.97 4.77-16.3 8.05-28.44 9.02-32.21 1.71-6.26 2.91-12.51 4.4-18.63 1.32-6.16 2.39-12.31 3.57-18.3 2.14-12.03 4.22-23.64 5.58-34.79 1.69-11.1 2.44-21.75 3.43-31.69 0.39-9.96 1.25-19.25 1.02-27.74q0-6.38 0.01-12.13c-0.12-3.82-0.41-7.42-0.57-10.8-0.33-6.75-0.65-12.57-1.35-17.28-1.09-9.47-1.7-14.71-1.7-14.71 0 0 0.91 5.2 2.57 14.6 0.96 4.69 1.57 10.49 2.24 17.26 0.34 3.37 0.79 6.99 1.07 10.82q0.24 5.79 0.52 12.2c0.58 8.55 0.06 17.92 0 28.01-0.66 10.03-1.13 20.81-2.56 32.04-1.11 11.27-2.99 23-5 35.15-1.12 6.06-2.13 12.23-3.43 18.47-1.45 6.21-2.67 12.59-4.4 18.9-0.96 3.81-4.19 16.1-8.8 32.43-4.58 16.32-10.21 36.82-13.27 57.62l-1.17 7.79c-0.18 2.61-1.34 18.17-1.73 23.18-0.86 10.11-1.58 19.46-1.74 27.75 0.1 4.11-0.02 7.98 0.35 11.42q0.22 2.6 0.4 4.94 0.37 2.31 0.68 4.33c0.34 2.72 0.94 4.94 1.43 6.72 0.46 1.79 0.8 3.14 1.02 3.98l-0.11 0.04c0.81 1.68 1.39 3.25 2.04 4.53 0.91 2.04 1.59 3.58 2.02 4.53l-5.84 2.25c3.08 2.3 6.02 4.65 8.6 7.1 1.38 1.17 2.64 2.37 3.86 3.56-0.2-2.97-0.22-6.17-0.12-9.51l-3.67 2.1q-0.54-1.14-1.67-3.56c-0.77-1.59-1.72-3.59-2.33-6.03-0.75-2.41-1.61-5.17-2.07-8.27-0.68-3.08-1.08-6.46-1.43-10.1-0.64-7.24-0.84-15.42-0.4-23.99 0.19-4.31 0.5-8.74 1.11-13.14 0.57-4.42 0.95-8.95 1.7-13.39 5.32-35.72 15.27-70.35 16.67-76.77 5.42-21.23 10.85-41.31 15.12-59.71 4.29-18.41 7.28-35.15 9.23-49.3 1.81-14.16 2.6-25.72 2.82-33.72 0.16-8.02 0.26-12.45 0.26-12.45 0 0 0.22 4.44 0.62 12.45 0.29 8.02 0.21 19.67-0.92 34.03-1.27 14.32-3.61 31.34-7.42 49.99-3.78 18.64-8.89 38.9-14.3 60.08-1.41 6.41-10.91 41.1-15.74 76.3-0.69 4.4-1.01 8.79-1.53 13.13-0.55 4.34-0.8 8.61-0.94 12.77-0.35 8.35-0.07 16.21 0.59 23.06 0.36 3.42 0.76 6.6 1.4 9.41 0.45 2.89 1.25 5.33 1.92 7.47 0.36 1.45 0.83 2.6 1.3 3.65 0.7-8.86 2.32-18.51 4.1-28.52 1.89-10.64 3.68-22.2 6.09-33.47 4.53-22.68 10.17-45.09 14.47-62.94 4.36-17.85 7.47-31.13 8.36-35.28 6.13-27.41 11.01-53.69 13.36-77.85 2.36-24.16 1.73-46.07-0.17-64.3-1.29-9.08-2.15-17.38-4.03-24.44-1.62-7.12-2.79-13.33-4.56-18.17-3.09-9.85-4.81-15.28-4.81-15.28 0 0 2.02 5.34 5.64 15.01 2.03 4.78 3.5 10.93 5.45 18.04 2.21 7.04 3.43 15.34 5.08 24.48 2.62 18.33 3.96 40.55 2.09 65.06-1.85 24.5-6.45 51.13-12.6 78.67-0.9 4.16-3.91 17.53-8.12 35.41-4.16 17.9-9.58 40.3-13.88 62.83-2.31 11.28-3.94 22.5-5.78 33.34-1.83 10.78-3.45 20.82-3.97 29.69-0.5 8.84 0.02 16.47 1.36 22.06 0.03 0.13 0.06 0.23 0.08 0.36 0.83 1.01 1.63 2.02 2.34 2.96 0.22 0.28 0.38 0.53 0.59 0.81 0.13-4.84 0.55-10.1 1.25-15.72 1.28-10.46 3.63-22.07 5.24-34.19 1.35-12.09 2.53-25.48 4.29-38.47 3.26-26.16 8.04-52.26 13.7-72.64 1.42-5.09 3.05-9.77 4.37-14.1 1.37-4.31 2.52-8.25 3.98-11.56 2.67-6.68 4.58-11.48 5.48-13.76 3.27-7.42 7.08-14.54 10.6-21.61q5.89-10.17 11.59-20.02c7.65-13.08 14.97-25.69 21.66-37.85 6.71-12.14 12.57-23.93 17.71-35.12 5.02-11.25 9.22-21.93 12.39-31.91 6.51-19.91 8.88-36.88 9.43-48.58 0.58-5.86 0.22-10.42 0.27-13.52-0.03-3.1-0.05-4.73-0.05-4.73 0 0 0.1 1.63 0.28 4.72 0.11 3.09 0.69 7.66 0.38 13.56-0.04 11.79-1.73 29-7.64 49.35-2.87 10.2-6.78 21.14-11.55 32.63-4.89 11.44-10.54 23.48-17.07 35.83-6.49 12.36-13.68 25.12-21.18 38.29q-5.61 9.86-11.4 20.05c-3.41 6.95-7.1 13.87-10.3 21.13-0.87 2.22-2.72 6.93-5.3 13.49-1.4 3.24-2.51 7.13-3.82 11.37-1.27 4.26-2.83 8.86-4.18 13.88-5.43 20.07-9.94 45.88-12.99 71.88-1.67 13.07-2.7 25.86-4.02 38.51-1.58 12.54-3.82 24.03-5.02 34.22-1.21 10.15-1.52 18.96-0.77 25.56 0.62 6.66 2.39 10.89 2.99 12.85l-2.07 0.83c2.05 3.32 3.32 5.86 3.94 6.9l-5.46 2.54c3.14 2.7 6.08 5.13 8.72 7.23-0.33-5.39-0.83-13.81-1.45-24.15-0.09-15.16-0.31-34.34 1.27-53.39 1.22-19.03 2.76-38.17 5.17-53.31 1.04-7.58 2.47-14.13 3.33-19.26 1.2-5.07 2.06-8.73 2.46-10.44 2.7-11.47 6.37-22.44 10.55-32.6 4.11-10.24 7.64-20.31 11.91-29.46 8.27-18.42 15.72-35 21.97-48.93 6.54-13.8 10.8-25.36 14.22-33.19 3.3-7.88 5.12-12.23 5.12-12.23 0 0-1.53 4.46-4.31 12.52-2.92 8.02-6.55 19.9-12.46 33.98-5.75 14.13-12.59 30.97-20.19 49.66-4.04 9.25-7.3 19.27-11.24 29.47-4.03 10.21-7.5 20.88-10.14 32.09-0.4 1.7-1.21 5.27-2.35 10.25-0.79 5.07-2.14 11.5-3.09 18.97-2.21 14.92-3.54 33.87-4.55 52.86-1.38 18.95-0.97 37.85-0.77 52.82 0.95 14.91 1.64 25.92 1.85 29.14l-1.08 0.11q2.37 1.82 4.01 3.06c0.19-6.06 0.34-13.73 0.2-22.62-0.13-18.44-1.02-42.11 0.93-65.63 1.44-23.5 4.78-46.97 8.58-65.42 0.99-4.6 1.82-8.94 2.76-12.86 1.04-3.9 4.33-16.28 4.9-18.43 0.7-2.11 1.23-3.72 1.56-4.75 8.45-27.79 21.09-52.25 30.98-74.91 10.2-22.61 18.44-43.34 24.61-61.02 2.79-8.94 5.71-16.91 7.38-24.18 1.82-7.2 3.73-13.36 4.54-18.54 2-10.31 3.12-16.01 3.12-16.01 0 0-0.81 5.76-2.27 16.16-0.54 5.26-2.16 11.5-3.67 18.83-1.38 7.37-3.97 15.49-6.45 24.59-5.54 18-13.2 39.14-22.93 62.04-9.5 23.02-21.73 47.5-29.98 74.68q-0.5 1.55-1.52 4.69c-0.54 2.11-3.69 14.33-4.68 18.17-0.91 3.87-1.68 8.15-2.62 12.69-3.59 18.21-6.69 41.38-7.92 64.69-1.52 20.49-0.89 40.88-0.54 58.19 1.2-17.41 3.2-36.39 4.72-55.44 4.22-28.72 6.65-58 14.08-80.43 3.5-11.15 7.05-20.68 10.05-27.99 2.86-7.38 5.2-12.52 6.22-15.01 6.92-16.38 14.26-32.07 20.53-47.47 6.32-15.41 11.97-30.49 16.77-44.99 9.6-29.04 14.44-56.23 14.9-79.43 0.7-11.56 0.81-22.1 1.23-31.31 0.53-9.24 0.81-17.19 1.39-23.67 1.46-12.92 2.27-20.06 2.27-20.06 0 0-0.5 7.16-1.41 20.12-0.31 6.48-0.28 14.43-0.49 23.64-0.09 9.25 0.15 19.72-0.21 31.38 0.25 23.3-3.98 51.29-13.19 80.76-4.61 14.75-10.09 29.97-16.31 45.56-6.2 15.64-13.46 31.37-20.34 47.65-1.01 2.46-3.33 7.6-6.1 14.91-2.93 7.26-6.36 16.67-9.72 27.61-7.07 21.73-9.3 50.78-13.3 79.39-2.11 28.88-5.36 57.7-5.21 80.36q0.01 5.06 0.15 9.69c0.93-15.58 1.79-34.45 3.23-53.34 1.34-20.79 3.74-41.55 5.8-58.08 2.84-16.44 4.51-28.77 5.64-32.48q2.58-9.28 5.11-18.33c1.79-5.97 4.06-11.68 6.02-17.38 1.95-5.72 4.19-11.17 6.41-16.52 2.22-5.33 4.28-10.61 6.5-15.65 8.71-20.24 16.82-38.29 22.69-53.81 3.26-7.67 5.32-14.88 7.48-21.12 1.02-3.13 2.1-6.02 2.85-8.74 0.68-2.74 5.35-21.53 5.35-21.53 0 0-3.56 19.07-4.09 21.86-0.62 2.78-1.55 5.7-2.41 8.91-1.86 6.36-3.61 13.75-6.55 21.56-5.24 15.87-12.76 34.27-20.97 54.68-2.1 5.09-4.04 10.35-6.14 15.7-2.1 5.34-4.24 10.81-6.09 16.46-1.87 5.65-4.05 11.33-5.78 17.2q-2.43 8.85-4.94 17.93c-1.1 3.62-2.63 15.82-5.29 32.05-1.89 16.39-4.07 37.01-5.2 57.72-1.39 20.69-2.07 41.38-3 57.82-0.58 8.26-0.42 15.27-0.46 20.75q-0.04 5.57-0.05 8.69c0.16 0.16 0.39 0.38 0.53 0.51l-0.54 0.52c-0.01 0.51-0.01 1.02-0.01 1.37l-1.48 0.05-3.03 2.91c-0.91-0.81-2.52-2.36-4.63-4.41l-1.45 0.16q-0.06-0.7-0.16-1.7-0.11-0.11-0.22-0.21l-0.75 0.48c-0.52-0.73-1.32-1.94-2.4-3.44-4.12-3.83-9.33-8.52-15.61-13.66-13.71-10.88-30.41-25.93-48.91-37.31-18.57-11.77-39.4-19.53-56.04-25.08q-6.32-1.96-11.75-3.62c-3.6-1.1-6.95-1.83-9.84-2.61-5.81-1.48-9.97-2.59-11.96-3.02-26.41-6.01-51.97-10.28-75.1-15.1-23.14-4.73-43.78-10.24-60.74-15.95-16.87-5.97-30.07-12.03-38.82-16.82-4.91-2.79-8.53-4.85-10.78-6.13-3.51-1.56-6.66-3.11-9.35-4.58-4.72-2.31-8.08-4.63-10.42-6.08-2.33-1.46-3.56-2.23-3.56-2.23 0 0 1.27 0.7 3.68 2.03 2.43 1.31 5.88 3.44 10.69 5.51 9.4 4.51 23.64 9.8 41.88 13.58 18.2 3.98 40.31 6.19 64.96 8.45 12.33 1.18 25.31 2.38 38.72 4.38 6.71 1.02 13.52 2.18 20.35 3.71q5.14 1.09 10.36 2.18c3.47 0.76 6.89 1.83 10.37 2.75 2.09 0.61 6.54 1.69 12.66 3.51 3.02 1.02 6.49 2.18 10.3 3.45 3.8 1.31 8.02 2.56 12.35 4.44 17.64 6.48 38.93 17.02 58.83 29.67 10.06 6.16 19.42 13.46 28.29 20.23 8.52 7.09 16.7 13.66 23.58 20.06 6.84 6.42 12.6 12.31 16.51 17.4 0.6 0.69 1.06 1.32 1.57 1.98-0.31-3.88-0.62-8.41-0.86-13.5l-4.28-0.35-1.12 1.13c-2.71-2.36-11.47-10.77-24.83-21.04-3.33-2.61-6.87-5.4-10.59-8.3-3.65-3.07-7.47-6.27-11.4-9.58-7.48-6.8-15.2-13.65-24.02-19.35-17.51-11.49-37.39-19.09-53.48-24.14-16.09-5.09-28.41-8.11-32.18-9.16-12.61-3.16-24.98-6.82-36.73-9.48-11.86-2.61-23.57-4.12-34.75-5.3-22.38-2.31-42.76-3.48-59.76-5.77-17.01-2.14-30.61-5.24-39.75-8.08-4.61-1.29-8.07-2.67-10.44-3.53-2.36-0.87-3.6-1.34-3.6-1.34 0 0 1.27 0.38 3.68 1.11 2.41 0.71 5.92 1.89 10.59 2.92 9.25 2.33 22.85 4.71 39.83 6.15 16.96 1.58 37.27 2.05 59.89 3.86 11.31 0.93 23.21 2.23 35.41 4.75 12.28 2.63 24.34 6.13 37.04 9.32 3.79 1.05 16.13 3.96 32.52 8.97 3.1 0.94 6.38 2.01 9.74 3.15-4.01-1.84-7.89-3.53-11.56-5.05-7.69-3.01-14.38-5.71-19.71-7.52-5.33-1.8-9.15-3.08-10.97-3.69-48.11-17.22-94.86-16.46-128.18-18.99q-6.28-0.42-11.93-0.8-5.63-0.55-10.62-1.04c-6.62-0.64-12.32-1.21-16.93-2.06-9.25-1.49-14.36-2.32-14.36-2.32 0 0 5.15 0.51 14.45 1.45 4.64 0.6 10.35 0.86 16.98 1.18q4.97 0.25 10.61 0.52 5.66 0.13 11.93 0.29c16.69 0.47 36.64 0.36 58.82 2.09 11.1 0.68 22.73 2.36 34.69 4.56q8.87 2.17 18.04 4.42c5.98 1.76 12.09 3.4 18.2 5.37 1.84 0.62 5.72 1.9 11.13 3.68 5.41 1.79 12.22 4.47 20.06 7.45 15.57 6.28 34.67 15.4 52.56 26.61 4.5 2.76 8.96 5.58 13.15 8.7 4.22 3.09 8.6 5.85 12.31 9.21 7.72 6.4 14.72 12.57 20.92 18.03 0.38 0.34 0.72 0.63 1.1 0.95-1.6-2.9-4.34-7.73-8.85-13.12-6.37-7.2-15.8-15.56-25.77-22.94-20.08-14.89-43.26-25.35-47.42-27.25-28.03-12.64-54.76-20.94-74.32-25.99-9.81-2.45-17.83-4.13-23.41-5.18-5.59-0.98-8.69-1.52-8.69-1.52 0 0 3.14 0.23 8.81 0.66 5.66 0.53 13.84 1.54 23.88 3.31 8.8 1.63 19.12 3.98 30.29 7.12l-0.08-0.03c-14.29-5.47-25.29-8.19-28.65-9.26-22.58-5.94-44.95-7.01-65.19-5.72-20.26 1.33-38.58 3.79-54.04 5-15.49 1.11-28.09 1.1-36.73 0.33-8.61-0.93-13.37-1.44-13.37-1.44 0 0 4.77 0.2 13.41 0.57 8.62 0.24 21.11-0.44 36.41-2.23 15.32-1.91 33.46-5.05 53.99-6.92 20.47-1.85 43.71-1.11 66.9 5.01 3.42 1.08 14.74 3.78 29.3 9.17 14.56 5.36 32.45 13.02 50.02 21.06 8.8 3.95 17.61 7.9 25.95 11.64 5.35 2.38 10.41 4.93 15.11 7.61-11-8.33-25.09-16.05-39.49-23.59-18.22-9.46-37.14-17.53-52.51-23.09-15.41-5.48-27.25-8.26-30.89-9.29-6.08-1.4-12.16-2.47-18.12-3.72q-9.05-1.18-17.81-2.32c-11.64-1.13-22.99-0.62-33.77 0.49-21.57 2.35-40.93 6.52-57.44 8.44-16.52 2.05-30.07 2.02-39.3 1.03-4.63-0.36-8.18-1.07-10.58-1.52-2.39-0.43-3.65-0.66-3.65-0.66 0 0 1.27 0.15 3.69 0.43 2.42 0.29 5.97 0.78 10.6 0.88 9.21 0.46 22.58-0.2 38.84-2.92 16.28-2.59 35.39-7.44 57.3-10.36 10.94-1.4 22.67-2.15 34.78-1.13 5.97 0.72 12.07 1.35 18.23 2.2 6.09 1.22 12.32 2.29 18.54 3.72 3.69 1.05 15.79 3.79 31.51 9.21 15.68 5.5 34.96 13.51 53.5 22.92 13.96 7.14 28.11 14.66 39.53 22.96-0.37-0.81-0.79-1.75-1.34-2.95-0.95-1.81-1.67-4.39-3.38-6.82-1.1-1.67-2.16-3.65-3.51-5.6l-1.63 0.59c-0.24-0.86-0.63-2.24-1.13-4.02-1.02-1.22-1.99-2.58-3.3-3.69q-2.29-2.02-4.75-4.19c-13.95-10.97-37.52-15.56-60.07-22.34-22.68-6.44-126.79-35.08-139.9-38.6-6.49-1.82-13.11-3.45-19.45-5.31q-4.7-1.61-9.31-3.2c-3.04-1.14-5.95-2.47-8.88-3.67-23.19-10.3-41.42-24.07-56.58-35.19-7.59-5.59-14.7-10.4-20.49-15.26-2.97-2.33-5.46-4.85-7.86-7.01-2.15-2.42-4.24-4.51-5.89-6.6q-2.34-3.22-4.14-5.7c-1.1-1.72-1.86-3.27-2.56-4.48-1.35-2.43-2.06-3.71-2.06-3.71 0 0 0.78 1.24 2.26 3.59 0.77 1.16 1.61 2.66 2.78 4.3q1.91 2.38 4.39 5.45c1.72 1.97 3.89 3.95 6.12 6.22 2.47 2.02 5.01 4.38 8.05 6.56 5.92 4.54 13.17 9.02 21 14.34 15.61 10.61 34.04 23.62 56.84 33.16 2.87 1.11 5.74 2.35 8.7 3.41 3.01 0.97 188.24 50.88 197.77 53.64-0.94-0.42-1.83-0.8-2.8-1.22-17.51-7.23-40.54-15.34-63.52-22.48-23.14-6.9-46.78-12.6-65.55-17.57-9.38-2.47-17.54-4.9-23.9-6.65-6.34-1.89-10.83-3.48-12.99-4.14-28.49-9.01-54.41-22.04-75.46-37.13-21.12-15.05-38.25-31.1-51.05-45.87-3.41-3.51-6.06-7.38-8.88-10.75-2.67-3.49-5.48-6.56-7.58-9.84-4.28-6.46-8.28-11.81-10.99-16.55-5.35-9.48-8.3-14.73-8.3-14.73 0 0 3.21 5.08 9.04 14.26 2.91 4.58 7.14 9.74 11.66 15.96 2.21 3.15 5.14 6.1 7.92 9.46 2.93 3.23 5.68 6.96 9.19 10.31 13.2 14.16 30.59 29.49 51.67 43.87 21.08 14.45 46.38 26.79 74.51 35.7 2.13 0.66 6.57 2.19 12.85 4.03 6.34 1.7 53.74 13.78 70.65 18.26-16.88-5.81-33.12-11.36-46.76-16.34-19.11-7.11-33.22-12.76-37.48-14.8q-5.4-2.34-10.7-4.65c-3.57-1.5-7.08-3.09-10.45-4.89q-10.2-5.21-20.08-10.25c-12.67-7.65-25.02-14.78-36-22.87-22.13-15.95-39.2-33.72-52.7-49.03-13.53-15.37-23.72-28.38-30.93-37.24-7.16-8.9-11.12-13.81-11.12-13.81 0 0 4.2 4.71 11.79 13.25 7.6 8.51 18.34 21.1 32.31 35.92 13.97 14.79 31.34 31.83 53.38 47.08 10.93 7.73 23.26 14.59 35.83 22.01q9.8 4.9 19.92 9.97c3.32 1.75 6.79 3.31 10.33 4.78q5.27 2.29 10.6 4.59c4.22 2.02 18.24 7.53 37.29 14.45 19.1 6.8 43.35 14.69 67.52 22.92 24.15 8.42 48.1 17.08 66.66 25.62 6.02 2.87 11.4 5.61 16.09 8.26q-0.01-0.15-0.03-0.3c-4.4-3.79-10.42-7.76-17.94-11.38-8.65-4.25-19.1-8.06-30.13-12.45-11.01-4.15-22.66-8.51-34.4-12.76-23.45-8.56-47-17.05-65.58-24.33-18.6-7.25-32.31-13.01-36.52-14.91-28.18-12-54.3-25.32-76.78-39.54-22.61-14.08-40.95-29.76-55.31-43.77-6.88-7.34-13.39-13.7-18.07-20.19-4.89-6.3-9.38-11.49-12.19-16.38-6.03-9.43-9.37-14.64-9.37-14.64 0 0 3.59 5.03 10.08 14.14 3.01 4.71 7.72 9.7 12.83 15.75 4.9 6.23 11.62 12.29 18.67 19.31 14.7 13.38 33.22 28.3 55.85 41.78 22.51 13.62 48.49 26.49 76.48 38.41 4.18 1.88 17.85 7.52 36.42 14.59 18.57 7.09 89.18 32.21 100.33 36.32 9.52 3.71 18.71 7.07 26.96 10.77-1.2-0.85-2.39-1.7-3.68-2.56-7.67-5.17-16.82-10.4-26.58-16.11-9.91-4.97-20.05-10.82-31.15-14.86-10.76-4.73-22.15-8.08-32.75-11.71-10.81-3.22-21.05-6.27-30.12-8.96-9.11-2.61-17.04-5.07-23.21-7.06-6.16-1.98-10.62-3.24-12.67-4.08-27.91-9.03-52.82-22.45-73.8-36.54-21.07-14.13-38.34-29.09-52.33-42.05-13.83-13.17-24.53-24.27-31.85-32.01-7.28-7.78-11.3-12.08-11.3-12.08 0 0 4.24 4.08 11.92 11.46 7.69 7.38 18.87 17.97 33.1 30.56 14.4 12.38 31.96 26.67 53.03 40.17 21.08 13.52 45.53 26.31 73.02 35.2 2 0.82 6.46 2.05 12.58 3.98 6.11 1.93 42.55 12.43 53.42 15.57 10.77 3.58 22.3 6.86 33.36 11.62 11.33 4.01 21.88 9.96 32.12 15.02 9.69 5.57 19.07 10.83 27.04 16.13q7.26 4.79 12.8 9.48c-0.29-0.96-0.6-2-0.91-3.03-0.66-0.63-1.55-1.47-2.76-2.59-1.42-1.31-3.03-3.07-5.36-4.73-1.07-0.81-2.19-1.72-3.4-2.65l-2.03 0.75c-0.2-0.65-0.49-1.66-0.85-2.83-0.49-0.35-4.62-3.07-6.27-4.17q-2.58-1.51-5.35-3.14c-7.4-4.35-16.13-8.74-25.44-13.53-9.34-5.01-19-9.9-28.72-14.71-19.92-8.82-40.93-15.26-57.71-20.33-16.85-5.03-29.39-8.78-33.28-9.94-25.83-7.84-50.12-17.65-70.1-30.19-20.08-12.33-36.38-25.89-49.5-37.76-12.86-12.19-22.57-22.71-28.99-30.21-6.32-7.6-9.81-11.79-9.81-11.79 0 0 3.72 3.99 10.45 11.2 6.8 7.14 16.98 17.13 30.2 28.72 13.48 11.27 30.06 24.12 50.06 35.8 19.89 11.86 43.66 21.09 69.33 28.9 3.89 1.13 16.43 4.77 33.28 9.66 16.88 4.95 38.19 11.23 58.67 20.09 10.07 4.86 20.08 9.84 29.16 14.61 8.17 4.11 16.02 8.02 23.03 11.92-1.42-1.29-2.94-2.63-4.67-3.95-2.97-2.53-6.41-5.07-10.16-7.73-7.53-5.25-16.37-10.82-26.14-16.04-4.88-2.63-9.95-5.27-15.19-7.64-5.25-2.37-10.42-5.1-15.87-7.24-21.58-9.09-44.25-15.87-62.1-21.91-17.96-5.79-31.13-10.91-35.26-12.32-6.76-2.68-13.37-5.56-19.9-8.28-6.42-3-12.6-6.35-18.73-9.44-11.95-6.77-23.07-13.91-33.33-21.21-20.5-14.6-37.49-29.61-51.31-42.58-13.68-13.13-24.32-24.16-31.59-31.85-7.24-7.74-11.23-12.01-11.23-12.01 0 0 4.22 4.06 11.85 11.39 7.64 7.33 18.76 17.84 32.85 30.4 14.24 12.41 31.55 26.78 52.12 40.78 10.28 7 21.4 13.88 33.22 20.4 6.05 2.95 12.1 6.17 18.42 9.09 6.46 2.64 12.95 5.45 19.62 8.09 4.1 1.4 17.12 6.35 35.08 11.98 17.86 5.89 40.65 12.48 62.73 21.55 5.56 2.13 10.88 4.87 16.26 7.26 5.39 2.39 10.53 5.02 15.52 7.65 10 5.25 19.12 10.89 26.94 16.28q2.9 2.02 5.55 3.98-0.15-0.43-0.29-0.89c-0.77-0.99-1.7-2.19-2.75-3.51-4.27-3.66-11.08-9.49-19.91-16.04-3.03-2.54-6.7-4.51-10.3-6.96q-2.74-1.77-5.6-3.62c-1.95-1.14-4.06-2.08-6.13-3.15-8.23-4.35-17.43-8.27-26.7-11.99-18.61-7.23-37.99-12.9-53.22-18.11-7.67-2.48-14.28-4.91-19.45-6.81-5.18-1.8-8.82-3.37-10.54-4.1-5.74-2.37-11.46-4.6-16.83-7.47q-4.07-2.03-8.08-4.03c-2.65-1.37-5.14-2.94-7.66-4.38-10.03-5.97-19.9-11.37-28.86-17.23-8.82-6.08-17.19-11.88-25.03-17.29-4-2.58-7.38-5.75-10.87-8.46q-5.14-4.18-9.85-8.01c-12.84-9.88-21.79-19.52-28.39-25.67-6.47-6.28-10.06-9.76-10.06-9.76 0 0 3.8 3.25 10.66 9.13 6.94 5.75 16.32 14.84 29.52 24.11q4.84 3.61 10.11 7.56c3.57 2.55 7.03 5.56 11.1 7.99 7.92 5.15 16.4 10.64 25.31 16.43 18.45 10.5 38.35 22.98 61.01 31.91 1.7 0.71 5.27 2.22 10.42 3.97 5.1 1.82 11.65 4.16 19.31 6.56 15.2 5.03 34.65 10.51 53.68 17.68 5.61 2.19 11.19 4.47 16.61 6.87-4.27-2.07-8.67-4.1-13-6.21-18.62-8.71-78.92-34.99-82.4-36.52-23.12-10.16-44.9-20.52-64.07-31.18-19.2-10.61-35.71-21.53-49.06-31.35-13.22-10.02-23.3-18.89-29.96-25.3-6.57-6.5-10.2-10.1-10.2-10.1 0 0 3.84 3.37 10.78 9.45 7 6.01 17.47 14.29 31 23.67 13.66 9.2 30.38 19.42 49.67 29.48 19.26 10.12 41.04 20.1 64.08 30.22 3.49 1.49 14.74 6.31 29.85 12.78 15.12 6.45 34.18 14.45 53 23.03q3.36 1.61 6.73 3.14c-1.17-0.76-2.33-1.54-3.55-2.3-7.64-4.41-15.65-9.14-23.98-13.54-33.09-17.7-67.4-33.66-73.55-36.9-20.73-10.1-40.26-20.33-57.4-30.73-17.17-10.35-31.86-20.92-43.68-30.39-11.67-9.68-20.55-18.13-26.39-24.25-5.75-6.18-8.94-9.59-8.94-9.59 0 0 3.41 3.2 9.55 8.97 6.19 5.72 15.49 13.61 27.49 22.66 12.15 8.85 27.08 18.73 44.35 28.55 17.25 9.86 36.79 19.68 57.46 29.76 6.12 3.23 40.56 18.78 74.1 36.26 8.38 4.3 16.62 9.07 24.47 13.49 2.41 1.48 4.74 3 7.02 4.49-2.42-2.5-4.9-5-7.58-7.46-1.85-1.61-3.64-3.38-5.63-4.92q-3-2.3-6.05-4.64c-4.29-2.93-8.65-5.9-13.01-8.88-17.73-11.46-36.67-21.18-51.79-28.88-15.19-7.66-26.49-13.37-29.99-15.14-11.65-5.84-22.93-12.12-33.54-18.12-10.71-5.98-21.13-11.69-30.9-17.4-19.56-11.4-36.69-22.76-49.62-34.13-13.05-11.24-21.82-22.26-26.74-30.47-1.2-2.07-2.41-3.84-3.2-5.5-0.77-1.68-3.55-7.72-3.55-7.72 0 0 3.13 5.85 4 7.47 0.88 1.6 2.18 3.29 3.48 5.28 5.32 7.86 14.5 18.25 27.8 28.79 26.38 21.4 69.11 42.16 114.8 66.83 3.46 1.83 14.81 7.35 30.08 14.89 6.92 3.44 14.68 7.33 22.77 11.6-13.79-9-27.94-16.94-39.44-23.48-13.08-7.3-22.82-12.74-25.83-14.43-20.13-11.09-39.13-22.22-55.52-33.73-16.39-11.47-30.31-23.08-40.87-33.93-2.78-2.56-5.06-5.38-7.4-7.85-2.27-2.54-4.55-4.8-6.36-7.2-3.72-4.72-7.13-8.6-9.5-12.09-4.82-6.92-7.48-10.74-7.48-10.74 0 0 2.9 3.63 8.16 10.19 2.58 3.33 6.21 6.99 10.14 11.46 1.92 2.28 4.31 4.41 6.67 6.82 2.45 2.31 4.83 4.99 7.7 7.39 10.93 10.25 25.09 21.15 41.59 32.05 3.51 2.34 7.19 4.66 10.92 6.97-4.29-2.91-8.46-5.88-12.41-8.95-17.46-13.55-31.29-27.9-42.16-40.42-10.84-12.57-19.08-23.15-24.76-30.45-5.64-7.35-8.76-11.41-8.76-11.41 0 0 3.36 3.87 9.43 10.85 6.09 6.98 14.86 17.09 26.16 29.13 11.32 11.99 25.48 25.66 42.93 38.54 17.37 12.87 38.67 24.23 60.23 37.36 6.39 4.09 42.85 24.12 76.53 48.48q6.36 4.49 12.65 8.93c4.15 2.91 8.12 5.74 12.22 8.47 6.12 4.15 12.04 8.13 17.37 12.09-0.13-0.3-0.24-0.56-0.37-0.87-3.92-3.36-40.89-35.18-44.43-38.23-3.51-3.08-7.1-6.15-10.87-8.94-14.82-11.55-30.47-22.24-43.09-30.48-12.61-8.28-22.12-14.29-25.07-16.16-19.6-12.36-38.22-24.36-54.5-36.26-16.32-11.86-30.22-23.61-41.28-34.12-10.88-10.71-19.04-19.97-24.32-26.63-5.18-6.75-8.04-10.47-8.04-10.47 0 0 3.09 3.53 8.7 9.91 5.66 6.31 14.3 15.03 25.55 25.14 11.43 9.9 25.63 21 42.11 32.33 16.45 11.37 35.15 23.03 54.76 35.39 2.96 1.86 12.48 7.88 25.27 15.97 12.78 8.15 28.64 18.73 43.84 30.33 3.9 2.82 7.53 5.86 11.08 8.92 3.58 3.02 15.13 12.8 17.36 14.68l-0.06-0.05c-1.53-1.6-3.09-3.59-5.19-5.49q-3.14-2.87-6.82-6.24c-9.88-8.81-23.24-19.54-36.54-30.02-26.8-20.79-54.88-40.36-59.9-44.14-16.95-12.15-32.87-24.13-46.76-35.77-13.93-11.61-25.77-22.89-35.25-32.78-9.34-10.04-16.4-18.58-21-24.69-4.53-6.15-7.03-9.56-7.03-9.56 0 0 2.73 3.21 7.7 9.01 5 5.75 12.54 13.8 22.3 23.27 9.92 9.32 22.1 19.98 36.24 31.09 14.12 11.15 30.13 22.77 47.05 34.89 5.01 3.78 33.28 22.95 60.57 43.62 11.58 8.9 22.84 17.76 32.34 25.78-1.61-2.81-3.71-6.55-6.08-11.1q-2.57-2.23-5.46-4.8c-4.52-3.9-9.5-8.36-15.04-12.73-2.79-2.15-86.22-62.18-93.24-67.34-6.89-5.38-13.43-10.7-19.68-15.73-12.09-10.58-22.82-20.28-30.91-29.38-8.59-8.58-14.34-16.59-18.55-21.89-4.15-5.33-6.44-8.29-6.44-8.29 0 0 2.53 2.76 7.11 7.74 4.6 4.94 10.85 12.45 19.86 20.48 8.52 8.53 19.61 17.62 31.91 27.69 6.33 4.81 12.99 9.86 19.89 15.09 7.05 5.06 31.48 22.28 41.39 29.1 9.7 6.68 21.92 14.92 33.94 23.54-20.45-17.84-43-32.01-47.06-35-14.74-9.86-28.76-19.45-40.92-29.01-12.17-9.56-22.53-19-30.34-27.75-2.02-2.12-3.67-4.4-5.36-6.41-1.63-2.08-3.33-3.9-4.57-5.89-2.55-3.89-4.99-7.07-6.52-9.96-3.08-5.74-4.78-8.92-4.78-8.92 0 0 1.97 3 5.53 8.45 1.72 2.73 4.39 5.7 7.17 9.35 1.34 1.86 3.15 3.55 4.88 5.49 1.81 1.88 3.56 4 5.67 5.97 8.2 8.14 18.83 16.88 31.16 25.91 12.33 9.04 26.44 18.25 41.19 28.14 2.44 1.8 11.66 7.52 23.24 15.71q-0.21-0.21-0.41-0.4c-9.44-8.76-19.22-16.95-27.47-23.19zm162.13 343.69c-4.23-1.88-8.37-3.14-12.11-4.45-3.73-1.3-7.13-2.46-10.1-3.48-6-1.84-10.38-2.93-12.43-3.53-3.42-0.9-6.79-1.96-10.21-2.71q-5.13-1.11-10.2-2.2c-6.73-1.55-13.43-2.75-20.03-3.83-13.22-2.12-26.11-3.54-38.4-4.98-24.58-2.78-46.85-5.7-65.11-10.42-11.31-2.78-21.01-6.14-28.96-9.48q3.15 1.57 7.85 3.9c8.96 4.3 22.34 9.68 39.29 14.94 17.04 5 37.64 9.79 60.79 13.98 23.12 4.29 48.77 8.21 75.43 14.29 2.01 0.43 6.23 1.53 12.12 2.97 2.94 0.77 6.33 1.48 10 2.57 3.66 1.09 7.67 2.29 11.96 3.57 16.84 5.45 38 13.13 57.13 24.9-3.11-2.21-6.27-4.38-9.55-6.42-19.39-12.57-40.18-23.1-57.47-29.62zm96.54 17.99l-0.83 0.51c1 1.01 2.04 2.03 2.95 3.02q-0.14-1-0.24-2.05l-0.66 0.37c-0.32-0.42-0.74-1.08-1.22-1.85zm-14.04-11.46c-2.44-2.26-5.26-4.6-8.63-6.82-0.37-0.26-0.79-0.51-1.17-0.76q5.09 3.7 9.8 7.58zm-191.23-315.16q-0.06-0.16-0.11-0.31l-0.04 0.03q0.06 0.14 0.15 0.28zm-0.65-1.75q0.04 0.06 0.08 0.11-0.03-0.07-0.05-0.15zm67.58 96.56l-1.63 0.29c0.8 0.68 1.54 1.31 2.3 1.95-0.16-0.48-0.28-0.92-0.43-1.41q-0.12-0.41-0.24-0.83zm18.9 37.07q-1.44-1.58-3.14-3.29l-1.16 0.38q1.89 2.15 3.64 4.23c0.35 0.43 0.68 0.81 1.02 1.23-0.12-0.84-0.24-1.66-0.36-2.55zm-5.01-3.96l-0.09 0.12q0.09 0.09 0.17 0.18-0.04-0.14-0.08-0.3zm-19.2-35.96c-0.31-1.95-0.7-4.51-1.17-7.53l-1.43 0.52q0.61 1.36 0.89 2.02l-2.64 1.31q1.97 1.67 3.84 3.26 0.27 0.22 0.51 0.42zm-19-26.62q-0.38-0.85-0.76-1.74l-0.72 0.41c0.06 0.07 1.06 0.95 1.48 1.33z"/>
			<path id="&lt;Compound Path&gt;" fill-rule="evenodd" class="s0" d="m292.2 487.18q1.45 1.17 3.11 2.49c8.44 7.4 22.24 16.31 40.68 24.04 18.54 7.58 41.74 13.43 67.86 18.39 26 5.2 55.31 9.77 84.51 20.44 2.21 0.76 6.89 2.29 13.25 4.84 3.2 1.25 6.85 2.66 10.88 4.22 4.01 1.6 8.3 3.56 12.93 5.54 18.49 8.06 41.17 19.44 62.93 32.27 5.4 3.27 10.8 6.54 16.14 9.76 5.23 3.37 10.4 6.69 15.44 9.92 9.91 6.66 45.14 30.91 50.94 34.86-0.8-6.84-1.62-15.68-1.96-25.89 0.02-5.11 0.03-10.54 0.05-16.23 0.06-5.68 0.61-11.58 0.91-17.66 0.9-12.13 2.54-24.82 3.81-37.57 0.98-12.79 3.61-25.37 5.74-37.37 2.19-11.98 3.96-23.39 6.86-33.22 2.56-9.89 8.12-31.51 8.73-33.84 0.75-2.29 20.97-62.2 23.32-68.84 2.26-6.68 4.1-13.32 6.11-19.75 2.09-6.4 3.63-12.77 5.16-18.97 1.45-6.2 3.31-12.14 4.32-18.04 2.33-11.73 4.52-22.66 6.37-32.79 2.08-10.04 4.01-19.04 5.43-27.02 0.52-4 1.19-7.71 1.46-11.16 0.18-3.44 0.58-6.61 0.52-9.45q-0.12-4.27-0.22-7.56c-0.18-2.18-0.58-4.01-0.79-5.49-0.45-2.98-0.7-4.54-0.7-4.54 0 0 0.32 1.55 0.94 4.49 0.27 1.49 0.77 3.3 1.06 5.49q0.25 3.3 0.58 7.6c0.2 2.87-0.07 6.06-0.1 9.55-0.13 3.5-0.64 7.27-1.01 11.33-1.09 8.07-7.76 48.4-9.81 60.3-0.85 5.99-2.56 12.01-3.88 18.3-1.4 6.28-2.81 12.75-4.8 19.24-1.9 6.52-3.64 13.27-5.83 20.03-2.27 6.73-22.02 66.58-22.76 68.85-0.58 2.31-5.95 23.78-8.41 33.61-2.8 9.75-4.45 21.07-6.53 32.95-2.02 11.9-4.53 24.36-5.39 37.07-1.17 12.64-2.7 25.27-3.51 37.24-0.26 5.98-0.76 11.81-0.78 17.37 0.02 5.56 0.04 10.89 0.05 15.88 0.16 3.79 0.38 7.3 0.63 10.67 0.76-11.79 2.6-24.73 4.36-38.41 1.98-13.99 4.02-28.79 6.58-43.49 2.27-14.76 5.35-29.4 7.99-43.34 3.11-13.84 5.7-27.04 8.77-38.55 2.86-11.58 5.4-21.64 7.73-29.41 2.21-7.79 3.81-13.38 4.55-16.02 2.63-8.76 5.5-17.33 8.2-25.8 2.67-8.49 5.94-16.63 8.82-24.74 3.1-8.1 5.55-16.02 8.14-23.8 2.88-7.68 4.41-15.56 6.25-23.17 6.84-30.56 8.22-59 7.83-82.75-0.22-5.93-0.63-11.59-0.9-16.94-0.28-5.35-0.54-10.41-1.18-15.1-1.16-9.38-1.72-17.55-2.92-24.1-2.1-13.18-3.27-20.46-3.27-20.46 0 0 1.47 7.23 4.13 20.31 1.46 6.53 2.32 14.67 3.82 24.05 0.8 4.69 1.22 9.75 1.68 15.12 0.45 5.37 1.04 11.04 1.43 17.01 1.09 23.89 0.42 52.68-6.02 83.86-1.74 7.76-3.19 15.81-6 23.67-2.54 7.94-5 16.16-7.98 24.13-2.78 8.1-5.98 16.21-8.6 24.65-2.64 8.44-5.46 16.95-8.08 25.64-0.74 2.63-2.28 8.19-4.44 15.95-2.03 6.87-4.21 15.63-6.61 25.56 1.35-4.59 2.5-7.95 3.08-9.69 2.44-7.24 4.61-14.46 7.43-21.37 2.75-6.92 5.02-13.9 8.59-20.27 6.15-13.19 13.71-24.91 21.04-35.93q5.8-8.04 11.3-15.67 5.71-7.41 11.09-14.37c7.13-9.29 13.99-17.75 19.95-25.69 5.89-7.98 11.46-15.05 15.67-21.72 4.31-6.58 8.36-12.09 10.85-17.06 5.42-9.71 8.42-15.08 8.42-15.08 0 0-2.73 5.52-7.66 15.5-2.27 5.13-6.07 10.8-10.14 17.6-3.95 6.89-9.25 14.18-14.89 22.41-5.7 8.18-26.17 35.93-29.85 40.95q-5.27 7.67-10.84 15.76c-7.02 11.03-14.26 22.68-20.1 35.55-3.4 6.19-5.6 13.13-8.27 19.97-2.74 6.8-4.86 13.97-7.28 21.12-0.72 2.15-2.26 6.7-4.01 13.18-1.82 6.45-4.23 14.7-6.46 24.31q-0.91 3.61-1.82 7.44c10.22-34.89 24.32-64.78 36.5-85.45 3.28-5.45 5.98-10.53 8.86-14.68 2.88-4.15 13.72-19.64 13.72-19.64 0 0-9.64 16.24-12.21 20.55-2.58 4.3-4.97 9.53-7.92 15.11-11.59 22.42-25.21 54.65-35.39 91.76-0.69 2.65-2.95 10.95-5.53 22.23 9.97-32.77 21.37-59.08 24.06-65.14 12.13-27.84 25.76-53.42 39.11-76.01 13.56-22.41 25.77-42.59 36.03-59.54 10.06-17.02 17.79-31.06 22.78-40.94 4.95-9.9 7.68-15.39 7.68-15.39 0 0-2.45 5.62-6.89 15.78-4.52 10.12-11.66 24.51-21.16 41.94-18.82 34.91-48.62 81.01-72.43 136.38-3.64 8.23-22.99 53.96-32.81 102.28-1.17 4.87-2.14 9.79-3.06 14.7q1.93-6.75 3.84-13.42c1.54-5.07 3.32-9.99 4.91-14.83 3.3-9.65 6.25-18.83 9.15-26.88 6.21-15.94 10.84-27.8 12.27-31.48 4.87-12.17 10.42-23.74 15.4-35.05 4.99-11.33 10.6-21.75 15.41-32.01 9.9-20.37 19.01-38.67 27.41-53.66 4.3-7.42 8.17-14.15 11.87-19.89 3.82-5.65 6.86-10.67 9.78-14.49 5.78-7.64 8.98-11.87 8.98-11.87 0 0-2.95 4.4-8.26 12.36-2.69 3.96-5.47 9.12-8.98 14.92-3.41 5.86-6.96 12.74-10.93 20.29-7.74 15.24-16.19 33.75-25.61 54.34-4.57 10.35-10.03 20.99-14.83 32.28-4.36 10.25-9.21 20.7-13.68 31.57 8.74-19.16 16.12-32.89 18.53-37.28q3.13-5.82 6.22-11.56c2.1-3.81 10.78-18.64 12.91-22.29 2.14-3.64 4.52-7.08 6.73-10.58 8.93-13.91 17.26-27.47 24.8-40.62 7.54-13.14 14.32-25.86 20.05-38.04 3.01-6.02 5.46-12.05 8.04-17.75 2.23-5.82 4.7-11.31 6.48-16.75 7.81-21.54 11.56-39.82 13.04-52.55 0.9-6.36 1.05-11.35 1.17-14.73 0.15-3.38 0.23-5.16 0.23-5.16 0 0 0 1.78 0.01 5.16 0.03 3.4 0.1 8.4-0.54 14.82-0.97 12.84-4.06 31.4-11.26 53.37-1.64 5.54-3.96 11.14-6.07 17.08-2.43 5.82-4.76 11.96-7.64 18.11-5.47 12.43-12.05 25.38-19.41 38.74-7.36 13.37-15.56 27.14-24.38 41.17-2.18 3.5-4.52 6.97-6.61 10.59q-3.13 5.45-6.31 10.98c-2.1 3.69-4.3 7.37-6.38 11.15q-3.06 5.71-6.16 11.49c-4.89 9.16-32.4 60.18-45.84 115.79l-2.64 10.35q-0.18 0.82-0.35 1.63 1.74-4.45 3.57-8.87c10.03-24.44 22.17-47.9 31.91-66.46 9.82-18.54 17.51-32.1 19.8-36.37 15.51-28.11 30.6-54.65 43.22-79.35 12.71-24.65 22.85-47.48 30.48-67 7.32-19.65 12.21-35.94 15.01-47.33 2.67-11.45 4.16-17.78 4.16-17.78 0 0-1.18 6.4-3.31 17.97-2.3 11.54-6.53 28.08-13.23 48.09-7.02 19.88-16.6 43.15-28.9 68.17-12.22 25.05-27.05 51.84-42.55 79.93-2.27 4.25-9.87 17.86-19.51 36.39-8.12 15.75-17.89 35.02-26.62 55.3 6.08-12.11 12.32-23.36 18.05-32.98 10.06-17.19 18.03-29.66 20.45-33.54 16.19-25.82 32.12-49.98 45.63-72.53 13.68-22.45 24.43-43.54 32.6-61.64 3.82-9.15 7.56-17.35 9.94-24.89 2.57-7.46 5.06-13.82 6.31-19.24 2.96-10.75 4.58-16.69 4.58-16.69 0 0-1.33 6.02-3.73 16.92-1.01 5.5-3.22 11.97-5.48 19.58-2.08 7.69-5.51 16.05-9.05 25.41-7.58 18.49-17.81 40.09-31.1 62.94-4.3 7.5-8.89 15.17-13.65 22.98 6.97-10.36 13.35-19.95 18.94-28.6 8.99-14.14 15.96-25.8 20.55-33.98 4.52-8.24 7.02-12.79 7.02-12.79 0 0-2.22 4.7-6.25 13.19-4.13 8.45-10.5 20.48-18.94 35.04-8.54 14.49-19.18 31.48-31.18 50.15-11.97 18.7-25.28 39.14-38.01 61.26-1.9 3.35-8.02 14.12-15.39 29-7.13 14.98-15.19 34.22-20.54 54.25q-0.6 2.45-1.26 4.89c0.68-2.26 1.38-4.53 2.16-6.77 8.14-23.83 21.23-45.31 31.79-61.95 10.73-16.61 19.1-28.61 21.55-32.43 8.42-12.52 16.2-24.83 23.39-37.15 7.24-12.22 14.41-23.92 20.82-35.27 6.63-11.24 12.4-22.2 17.92-32.39 2.55-5.19 9.75-19.81 10.89-22.14 1.01-2.36 6.75-15.79 8.5-19.87 1.77-4.08 2.93-8.1 4.3-11.78 2.59-7.38 4.99-13.72 6.19-19.11 2.86-10.67 4.43-16.58 4.43-16.58 0 0-1.27 5.98-3.59 16.8-0.96 5.48-3.06 11.92-5.36 19.45-1.21 3.75-2.22 7.86-3.85 12.02-1.6 4.17-6.89 17.88-7.83 20.31q-1.6 3.55-3.27 7.25c-2.25 4.92-4.5 10.09-7 15.36-5.26 10.4-10.8 21.58-17.23 32.98-6.22 11.55-13.2 23.37-20.33 35.7-7.03 12.34-14.91 24.99-23.33 37.51-2.45 3.83-10.77 15.93-21.26 32.48-10.36 16.57-23.01 37.82-30.68 60.89-3.91 11.49-6.46 23.31-7.82 34.73-0.64 5.77-1.28 11.39-1.89 16.77-0.41 5.39-0.8 10.53-1.17 15.36-0.8 13.47-0.76 24.37-0.69 31.24 1.31 1.8 2.3 3.2 2.89 3.97l-2.83 1.99c0 0.18-0.01 0.44-0.01 0.6l-0.88 0.03-1.51 1.07c0.19 0.28 0.42 0.58 0.6 0.85 1.44 2.06 2.46 4.06 3.31 5.62 0.76 1.67 1.25 2.99 1.57 3.8l-5.6 1.86q3.16 3.54 5.58 6.41c0.06-0.9 0.14-1.78 0.18-2.81 0.26-6.09 0.2-13.99-0.32-23.25-0.36-9.26-1.24-19.83-0.58-31.23 0.63-11.49 3.06-23.07 5.45-34.67 5.04-23.2 13.4-45.59 21.49-62.65 7.93-17.16 15.27-29.18 17.55-32.89 15.29-24.71 31.36-46.54 44.32-67.7 6.24-10.71 12.18-20.89 17.72-30.42 5.31-9.68 9.91-18.88 14.31-27.19 8.93-16.53 15.22-30.4 19.97-39.79 4.66-9.43 7.24-14.65 7.24-14.65 0 0-2.3 5.35-6.45 15.02-4.27 9.61-9.92 23.77-18.26 40.66-4.1 8.48-8.41 17.87-13.43 27.74-5.34 9.73-11.05 20.11-17.05 31.05-12.57 21.51-28.69 44.06-43.59 68.15-2.24 3.65-9.37 15.55-17.02 32.46-7.81 16.82-15.8 38.84-20.54 61.6-2.27 11.37-4.55 22.87-5.04 33.6-0.55 10.84 0.39 21.26 0.81 30.56 0.59 9.28 0.7 17.53 0.44 23.92-0.16 4.31-0.56 7.7-0.85 10.13 0.15 0.17 0.34 0.42 0.46 0.56l-0.58 0.47c-0.08 0.73-0.16 1.38-0.19 1.85l-1.75-0.26-2.91 2.37c-2.59-2.93-10.76-13.56-23.32-26.37-6.3-6.38-13.73-13.27-22.37-19.57-8.48-6.4-18.46-12.03-28.27-17.95-19.85-11.44-40.1-22.59-55.74-32.37-15.73-9.68-26.53-18.33-30.04-20.75-5.42-4.61-10.88-9.05-16.03-13.67q-7.29-7.39-14.35-14.57-6.77-7.21-13.28-14.17c-4.41-4.57-8.88-8.86-13.16-13.16-17.4-16.86-34.91-29.93-50.66-39.27-8.08-4.26-15.23-8.54-22.07-11.11-6.71-2.86-12.43-5.52-17.39-6.92-9.77-3.25-15.17-5.06-15.17-5.06 0 0 5.5 1.52 15.44 4.23 5.06 1.17 10.91 3.53 17.79 6.12 7.02 2.29 14.39 6.28 22.75 10.31 16.29 8.82 34.56 21.58 52.54 38.28 4.41 4.24 9.02 8.5 13.55 13.04 4.45 4.61 22.97 23.45 27.76 28.23 5.06 4.5 10.41 8.81 15.7 13.32 3.46 2.38 14.09 10.75 29.7 20.19 15.54 9.53 35.78 20.43 55.86 31.78 9.92 5.87 20.05 11.47 29.03 18.12 9.03 6.47 16.8 13.56 23.3 20.08 3.41 3.44 6.48 6.69 9.22 9.7-2.02-3.94-6.57-10.81-13.89-18.45-9.57-10.09-22.76-22.16-37.55-31.86-14.62-10.17-30.32-18.84-42.75-26.02-12.43-7.12-21.68-12.56-24.47-14.39-9.43-5.74-18.46-11.76-26.71-18.21-8.28-6.45-15.81-13.06-22.89-19.44-14.15-12.77-26.53-24.56-37.67-33.58-5.54-4.55-10.7-8.49-15.3-11.83-4.74-3.13-8.69-6.12-12.17-8.11-6.95-4.03-10.8-6.27-10.8-6.27 0 0 4 1.96 11.23 5.51 3.64 1.78 7.76 4.51 12.73 7.4 4.82 3.09 10.23 6.79 16.02 11.1 11.68 8.55 24.63 19.91 39.07 32.23 7.24 6.17 14.87 12.58 23.01 18.75 8.17 6.19 17.06 12.01 26.39 17.69 2.75 1.8 11.94 7.08 24.44 14.07 12.45 7.02 28.43 15.59 43.43 25.78 15.39 9.87 28.97 22.03 39.02 32.44 0.48 0.5 0.9 0.98 1.35 1.47-2.55-3.2-5.55-6.8-9.05-10.64-5-5.66-11.15-11.56-18.01-17.35-6.86-5.79-14.91-10.56-23.32-15.66-16.66-9.93-33.02-20.53-46.08-28.92-12.75-8.87-22.24-15.47-25.18-17.53-9.62-7.03-18.69-14.35-27.59-21.23-4.39-3.49-8.46-7.11-12.56-10.57-4.1-3.45-8.27-6.59-12.26-9.8-16.17-12.49-31.74-22.33-45.25-29.86-13.69-7.17-25.25-12.11-33.42-15.01-8.23-2.76-12.79-4.29-12.79-4.29 0 0 4.65 1.23 13.06 3.46 8.37 2.4 20.27 6.73 34.42 13.35 13.97 6.98 30.12 16.37 46.8 28.59 4.11 3.13 8.43 6.23 12.63 9.63 4.19 3.38 8.39 7 12.8 10.4 8.89 6.68 17.89 13.85 27.43 20.8 2.93 2.02 12.4 8.49 25.13 17.18 13.06 8.2 29.41 18.57 46.18 28.32 8.21 4.86 16.94 9.94 24.21 15.95 5.33 4.4 10.21 8.86 14.51 13.22-0.02-0.41-0.04-0.77-0.05-1.2-0.16-0.15-0.27-0.27-0.42-0.43-4.01-4.29-9.94-9.64-17.21-15.34 0 0-8.42-6.92-12.75-10.47-4.45-3.42-9.2-6.53-13.4-9.54-8.59-5.76-15.85-10.05-17.75-11.29-21.57-12.57-41.26-24.3-54.31-34.48-6.75-4.78-11.62-9.42-15.05-12.49-3.4-3.09-5.29-4.8-5.29-4.8 0 0 2.08 1.47 5.85 4.13 3.75 2.66 8.99 6.7 16.07 10.86 13.73 8.94 33.81 19.3 55.58 31.97 1.93 1.27 9.32 5.45 18.18 11.13 3.24 2.22 6.77 4.55 10.28 6.97-3.42-2.57-87.65-60.91-95.65-66.37-4.04-2.62-19.69-12.6-23.44-14.95-15.12-9.26-29.17-16.85-41.2-22.78-12.1-5.75-22.17-9.88-29.25-12.43-7.1-2.47-11.04-3.84-11.04-3.84 0 0 4.04 1.08 11.32 3.01 7.25 2.06 17.62 5.55 30.12 10.72 12.41 5.34 26.94 12.38 42.44 21.28q5.79 3.4 11.83 6.96c3.98 2.48 84.09 56.15 97.97 65.67 9.93 6.43 19.49 13.8 27.55 21.05q0.09-0.52 0.19-1.1c0.03-1.02 0.07-2.26 0.12-3.65q-0.25-0.67-0.47-1.4l-1.63 0.24c-0.12-1.67-0.64-4.88-1-9.33l-3.97 0.68c-0.13-0.99-0.35-2.58-0.63-4.58-5.55-3.78-65.94-45.12-71.09-48.51-5.26-3.23-10.59-6.51-15.93-9.8-21.47-12.87-43.79-24.31-62.02-32.42-4.57-1.99-8.81-3.97-12.75-5.58-3.98-1.57-7.57-3-10.73-4.25-6.28-2.57-10.88-4.1-13.06-4.85-28.68-10.5-57.56-15.35-83.62-21.1-26.11-5.49-49.49-12.1-68.01-20.44-18.46-8.49-32.01-18.12-40.16-25.94q-1.58-1.41-3-2.64c-0.86-0.91-9.26-9.85-9.26-9.85 0 0 1.12 1.07 3.25 3.13 1.07 1.03 5.58 5.35 6.48 6.21zm404.22 229.3l-0.37 0.04q2.76 3.08 5.08 5.89c-0.19-1.77-0.47-4.24-0.81-7.25l-1.56 0.9c-0.26-0.4-0.65-1.02-1.11-1.75l-1.27 0.96c0 0.42 0.03 0.9 0.04 1.21zm1.12-96.66c-0.46 2.53-6.68 37.1-6.85 38.13q1.09-4.37 2.33-8.97c1.14-7.24 2.56-14.77 4.18-22.49 1.35-6.67 4.29-21.17 4.35-21.5-0.67 2.43-1.34 4.89-2.01 7.3-0.67 2.53-1.48 5.01-2 7.53zm9.58 17.33c-4.93 14.82-8.61 29.22-9.94 41.72q-0.01 0.07-0.02 0.14c-0.12 5.22-0.03 9.97 0.37 13.98 0.16 1.85 0.23 3.59 0.4 5.15q0.37 2.34 0.65 4.23c0.06 0.33 0.08 0.56 0.13 0.88q0.26 0.34 0.49 0.67-0.01-0.15-0.02-0.28c-0.06-3.61-0.22-16.08-0.24-18.31q0.31-3.35 0.65-6.88c0.55-4.67 0.66-9.63 1.63-14.57q1.49-7.42 3.04-15.13c0.74-3.9 1.82-7.74 2.86-11.6z"/>
			<path id="&lt;Path&gt;" class="s0" d="m685.4 687.9q-0.27-0.26-0.55-0.54l0.59 0.12q-0.02 0.21-0.04 0.42z"/>
			<path id="&lt;Path&gt;" class="s0" d="m521.35 627.5c2.38 3.37 5.69 7.19 9.28 11.79 1.76 2.34 3.97 4.56 6.15 7.05 2.26 2.41 4.4 5.19 7.1 7.68 10.12 10.6 23.6 21.86 40.19 31.64 16.63 9.53 36.66 17.77 56.53 28.63 1.53 0.76 4.7 2.48 9.04 5.05q3.3 1.89 7.43 4.28c2.66 1.75 5.57 3.66 8.68 5.69 12.31 8.32 27.11 20.18 38.71 35.25 9.75 13.97 17.01 28.72 23.58 40.7-0.09-0.54-0.18-1.05-0.26-1.6-0.92-7.65-1.12-16.87-0.2-26.35l-4.73 0.73c-0.28-4.7-3.15-20.58-2.52-42.4 0.07-5.44 0.91-11.2 1.38-17.24 0.33-6.06 1.68-12.26 2.81-18.65q0.87-4.79 1.77-9.71 1.33-4.8 2.67-9.68c1.91-6.47 3.37-13.18 5.85-19.56 8.41-26.05 20.57-50.66 30.97-69.68 5.1-9.59 9.95-17.71 13.73-24.04 3.71-6.37 6.5-10.85 7.83-12.96 8.64-14.18 17.61-27.66 25.87-40.86 8.23-13.21 15.91-26.12 22.79-38.64 13.75-25.04 24.16-48.67 30.48-69.32 6.45-20.63 9.07-38.04 9.94-50.1 0.58-6.04 0.52-10.74 0.55-13.94 0.05-3.19 0.07-4.87 0.07-4.87 0 0 0.06 1.68 0.18 4.87 0.11 3.19 0.4 7.91 0.07 13.99-0.34 12.13-2.28 29.79-8.13 50.83-5.72 21.06-15.6 45.27-29.01 70.76-6.71 12.76-14.25 25.86-22.39 39.24-8.29 13.22-29.74 47.54-33.39 53.88-3.71 6.31-8.48 14.41-13.45 23.93-10.17 18.92-21.96 43.28-30.03 68.92-2.4 6.28-3.76 12.85-5.59 19.2q-1.28 4.79-2.55 9.49-0.83 4.79-1.66 9.47c-1.06 6.24-2.35 12.28-2.62 18.17-0.41 5.86-1.2 11.45-1.25 16.72-0.31 13.63 0.76 24.83 1.61 32.33 0.04-0.19 0.04-0.37 0.09-0.56 1.9-12.95 7.44-25.06 12.57-33.91 5.12-8.95 9.87-14.92 11.27-16.8 9.44-12.49 19.67-23.13 28.65-32.98 9.01-9.82 16.87-18.82 22.78-26.93 5.83-8.14 9.9-15.22 12.35-20.29 2.32-5.14 3.61-8 3.61-8 0 0-1 2.97-2.81 8.35-1.99 5.31-5.48 12.82-10.85 21.5-5.42 8.65-12.88 18.27-21.54 28.49-8.65 10.25-18.56 21.08-27.73 33.22-1.36 1.82-5.9 7.71-10.65 16.32-3.72 6.67-7.51 15.06-9.78 24.2 2.83-7.32 5.53-12.8 6.22-14.29 8.21-16.88 18.58-30.38 26.75-39.38 4.03-4.55 7.57-7.98 10.05-10.3 2.5-2.28 3.89-3.55 3.89-3.55 0 0-1.16 1.48-3.25 4.14-2.08 2.66-5.07 6.53-8.52 11.45-6.46 9.03-14.59 21.67-22.06 36.4 5.51-10.42 12.24-19.46 18.7-27.2 7.05-8.42 13.72-15.68 18.75-22.17 2.68-3.14 4.76-6.21 6.65-8.87q1.43-2.01 2.65-3.73c0.7-1.22 5.51-9.55 5.51-9.55 0 0-3.82 8.89-4.38 10.2q-1.05 1.85-2.28 4c-1.64 2.89-3.47 6.21-5.9 9.6-8.97 14.07-25.21 30.82-36.17 52.89-0.81 1.76-3.69 7.73-6.83 15.84 5.74-12.25 12.5-22.31 17.77-29.67 6.27-8.7 10.47-13.82 10.47-13.82 0 0-3.1 5.86-8.1 15.29-5.03 9.4-12.01 22.34-17.99 37.16-0.79 2.22-5.59 14.61-6.43 27.4-0.16 6.32 0.07 12.66 1.57 17.38 0.45 2.43 1.28 4.41 1.9 5.94 0.24 0.64 0.43 1.15 0.61 1.62-0.01-1.9 0.03-3.8 0.2-5.67 0.45-13.58 2.56-27.23 5.8-37.64 1.4-5.27 3.26-9.64 4.4-13.16 1.45-3.39 2.48-5.83 2.98-6.97 3.28-7.64 7.08-14.78 10.99-21.54 3.89-6.76 8.09-12.89 11.74-18.93 7.43-11.99 13.64-23.05 18.18-32.69 2.08-4.88 4.1-9.28 5.45-13.28 1.22-4.03 2.61-7.45 3.21-10.37 1.25-5.86 1.96-9.1 1.96-9.1 0 0-0.4 3.31-1.11 9.27-0.34 3.01-1.44 6.54-2.37 10.73-1.06 4.16-2.78 8.74-4.57 13.84-3.96 10.06-9.65 21.63-16.7 34-3.46 6.23-7.49 12.51-11.16 19.21-3.68 6.66-7.33 13.68-10.5 21.08-0.47 1.11-1.46 3.48-2.82 6.77-1.05 3.4-2.79 7.65-4.05 12.72-2.8 9.43-4.54 21.56-4.96 33.9-1.37 8.96-2.07 17.96-2.17 26.95-0.57 1.6-1.17 3.19-1.73 4.79-0.59-2.96-1.16-6.04-1.65-9.33-0.55-4.07-0.96-8.43-1.08-12.82l-2.81 1.31c0.71 0.99 1.31 1.81 1.66 2.33l-5.25 4.13c2.72 5.91 5.2 11.02 7.32 15.09 0.34 0.63 0.65 1.18 0.96 1.75q-1.54 4.45-3.04 8.91c-1.11-1.9-2.51-4.34-4.14-7.4-2.76-5.33-6.05-12.32-9.59-20.33-3.54-8.04-7.54-16.98-12.58-25.92q-1.97-3.29-3.99-6.67-2.28-3.16-4.6-6.39c-3.17-4.25-7.12-8.12-10.66-12.21l-5.49-6.07c-2.02-1.83-9.99-9.09-11.96-10.88-1.94-1.82-3.89-3.58-6.01-5.09-4.14-3.16-8.16-6.25-12.01-9.19-3.88-2.92-7.89-5.36-11.5-7.84-7.21-4.98-13.87-8.81-18.97-11.94-5.08-3.13-8.82-5.29-10.58-6.3-9.98-5.76-19.71-11.45-29.15-17.15q-0.38-0.4-0.75-0.79c-7.06-7.34-14.99-14.08-23.29-20.47 6.84 4.68 14.33 8.99 21.86 13.73 10.94 6.52 39.65 23 44.81 26.12 5.16 3.12 11.9 6.91 19.28 11.92 3.69 2.49 7.76 4.92 11.76 7.85q5.96 4.49 12.36 9.29c2.18 1.53 4.2 3.32 6.21 5.16 2.04 1.82 10.31 9.22 12.39 11.09 0 0 9.24 10.04 11.02 11.96-3.2-5.73-6.62-11.5-10.35-16.96-10.81-14.36-24.98-26.03-36.86-34.24-3.01-2.02-5.84-3.91-8.4-5.64q-4.04-2.38-7.25-4.27c-4.23-2.56-7.34-4.28-8.86-5.03-19.66-10.75-39.34-19.19-56.32-29.51-16.76-10.49-30.06-22.56-39.79-33.77-2.61-2.65-4.64-5.56-6.8-8.11-2.06-2.62-4.16-4.97-5.79-7.43-3.37-4.83-6.45-8.86-8.62-12.37-4.39-7-6.82-10.86-6.82-10.86 0 0 2.68 3.68 7.54 10.35z"/>
			<path id="&lt;Path&gt;" class="s0" d="m561.49 681.86c0.32 0.28 0.7 0.52 1.03 0.79-6.81-4.92-13.79-9.63-20.79-14.17-9.31-10.86-16.64-21.84-23.27-31.27-9.97-14.68-18.47-26.2-25.01-33.65q-2.47-2.79-4.36-4.92c-1.34-1.37-6.17-6.3-6.17-6.3 0 0 5.12 4.65 6.53 5.93q2.02 2.04 4.64 4.7c6.95 7.13 16.09 18.32 26.64 32.6 10.71 14.07 22.92 31.53 40.76 46.29z"/>
		</g>
		<path id="&lt;Path&gt;" class="s0" d="m295.41 96.55c5.37 5.47 27.83 28.4 32.29 32.95 4.26 4.73 33.74 37.53 45.27 50.37 11.15 13.17 22.8 27.8 35.42 43.3q4.72 5.83 9.59 11.83c3.25 4.01 6.16 8.33 9.33 12.57 6.24 8.54 37.68 51.94 39.34 54.36q9.96 14.52 20.37 29.7c27.71 40.49 57.02 84.88 86.73 132.69 29.68 47.84 59.68 99.17 87.96 153.85 28.03 54.8 54.02 113.1 75.54 174.27q3.99 11.49 8 23.02 3.61 11.73 7.23 23.49c5.15 15.7 8.89 31.4 13.04 47.16l2.35 9.06 3.23 15.11c1.66 8.07 3.58 16.11 5.03 24.23 2.66 16.29 5.82 32.48 7.65 48.99 0.99 8.2 2.25 16.47 3.02 24.62l3.12 34.79c-4.12-27.17-10.2-54.39-20.93-79.08-3.45-7.92-7.13-15.83-10.94-23.72q-0.19-1.09-0.37-2.18c-1.39-7.95-3.25-15.8-4.85-23.7l-3.12-14.78-2.22-8.68c-4.15-15.72-7.83-31.68-12.63-46.82q-3.41-11.5-6.8-22.96-3.83-11.39-7.65-22.73c-20.52-60.48-45.73-118.32-72.77-172.99-26.98-54.74-55.82-106.34-84.46-154.52-28.66-48.18-57.1-92.98-83.67-134.13-6.69-10.27-27.64-42.18-29.25-44.51-3.27-4.7-34.14-49.49-37.27-53.54-3.12-4.06-32.52-42.57-43.24-56.03-11.1-13.14-39.5-46.76-43.62-51.61-4.31-4.68-47.16-51.16-47.16-51.16 0 0 5.72 5.83 16.44 16.78z"/>
		<path id="&lt;Path&gt;" class="s0" d="m739.29 816.05c-1.91-2.17-22.46-24.16-25-26.87q-4.06-3.86-8.42-8.01c-5.88-5.43-11.8-11.44-18.23-16.93-6.5-5.41-12.94-10.91-19.17-15.97-6.47-4.79-12.6-9.32-18.03-13.33-5.66-3.72-10.6-6.95-14.45-9.48-3.98-2.34-6.83-4.02-8.18-4.82-4.39-2.73-9.11-5.08-13.48-7.36-2.08-0.99-4.23-2.14-6.39-3.37q-3.23-1.77-6.39-3.52c-8.39-4.66-16.52-9.04-23.88-13.66-3.8-2.18-7.16-4.7-10.62-6.93q-4.96-3.61-9.45-7.22c-2.76-2.62-5.73-4.89-8.08-7.54-2.36-2.68-4.73-5.03-6.86-7.68-17.21-20.64-28.15-33.05-28.15-33.05 0 0 9.08 13.98 24.27 35.98 1.82 2.75 4.19 5.6 6.44 8.59 2.27 3.02 5.18 5.64 7.93 8.63q4.44 4.14 9.41 8.26c3.43 2.53 6.85 5.39 10.62 7.82 7.39 5.19 15.46 9.97 23.78 14.89q3.12 1.82 6.29 3.67c2.07 1.23 4.26 2.46 6.64 3.66 4.42 2.38 8.73 4.56 13.03 7.23 1.29 0.78 4.02 2.44 7.82 4.75 3.68 2.52 8.4 5.75 13.81 9.45 5.21 4.02 11.08 8.55 17.28 13.34 5.98 5.07 12.15 10.57 18.38 15.98 6.18 5.48 11.87 11.51 17.51 16.92q4.19 4.13 8.09 7.98c2.45 2.71 22.3 24.56 24.27 26.6z"/>
	</g>
</svg>