<svg version="1.2" xmlns="http://www.w3.org/2000/svg" viewBox="0 0 1080 1080" width="1080" height="1080">
	<style>
		.s0 { fill: #000000 } 
	</style>
	<g id="&lt;Group&gt;">
		<g id="&lt;Group&gt;">
			<path id="&lt;Compound Path&gt;" fill-rule="evenodd" class="s0" d="m738.3 188.76c9.25-30.07 18.07-60.95 28.43-90.73 1.85-5.28 3.36-10.18 4.9-14.2 1.53-4.02 6.9-18.79 6.9-18.79 0 0-5.19 14.91-6.66 18.97-1.48 4.06-2.93 8.99-4.72 14.31-9.99 29.9-59.09 199.15-66.4 222.15-16.37 51.45-138.94 392.08-142.52 401.96-7.16 19.85-14.22 38.71-21.85 55.28-1.87 4.09-4.04 8.21-5.98 12.03q-1.5 2.89-2.96 5.67-1.62 2.77-3.18 5.39c-2.09 3.5-4.05 6.85-6.06 9.98-2.13 3.1-7.44 10.64-8.09 11.59 1.96-2.14 4.54-4.95 7.57-8.38 0.05-0.44 0.08-0.66 0.14-1.1 0.26-0.08 0.68-0.23 1.17-0.38 5.26-6.02 11.86-13.71 18.52-22.69 3.49-4.71 7.36-9.91 10.85-15.34 1.73-2.72 3.67-5.5 5.37-8.36 1.7-2.88 3.38-5.85 5.11-8.79 1.74-2.95 3.19-6.04 4.77-9.1 1.55-3.04 3.12-6.24 4.42-9.33 1.3-3.12 2.7-6.31 4.03-9.48q1.67-4.81 3.3-9.62c2.15-6.42 4.31-12.86 6.21-19.2 1.89-6.34 11.8-42.66 14.51-52.99 3.09-10.42 5.45-19.5 7.49-26.58 2.31-7.12 3.88-12.25 4.64-14.66 1.27-3.98 2.33-8.02 3.77-11.98 1.43-3.93 2.75-7.96 4.1-11.86 1.35-3.91 2.53-7.85 4-11.7 1.47-3.88 11.33-30.32 12.73-33.98 2.8-7.33 5.54-14.57 7.97-21.57 8.56-24.76 16.23-50.47 23.93-75.56 1.65-5.39 3.12-10.63 4.72-15.51 1.59-4.86 3-9.58 4.35-13.87 2.73-8.59 5.41-16.09 7.4-22.21 4.56-12.1 6.88-18.88 6.88-18.88 0 0-2.15 6.81-6.41 18.98-1.84 6.12-4.36 13.65-6.89 22.24-1.27 4.27-2.57 9-4.06 13.86-1.5 4.87-2.86 10.11-4.41 15.49-7.25 25.17-14.55 50.95-22.83 75.71-2.33 7.01-18.73 51.58-20.16 55.43-1.43 3.84-2.59 7.74-3.9 11.61-1.32 3.88-2.63 7.89-4.03 11.78-1.42 3.93-2.47 7.92-3.71 11.89-0.75 2.38-2.28 7.47-4.54 14.53-1.98 7.02-19.56 72.94-21.41 79.3-1.85 6.37-4 12.93-6.13 19.39q-1.61 4.87-3.26 9.73c-1.35 3.27-2.76 6.55-4.08 9.77-1.32 3.19-2.9 6.48-4.49 9.59q-0.51 1.04-1.03 2.07 0.37-0.65 0.74-1.29c5.22-9.6 10.17-19.89 14.53-30.16 8.77-20.59 16.07-41.49 21.44-58.14 5.38-16.65 25.71-81.54 33-105.87 6.74-22.45 22.02-76.56 24.12-83.37 2.09-6.83 3.76-12.8 5.33-17.63 3.11-9.64 4.7-15.05 4.7-15.05 0 0-12.89 47.35-15.18 55.92-4.58 17.11-9.72 37.56-16.12 60.02-6.93 24.32-26.84 89.01-32.1 105.68-5.26 16.66-12.42 37.67-21.12 58.49-4.31 10.36-9.26 20.95-14.54 30.67q-1.41 2.57-2.86 5.1c1.21-1.74 2.47-3.53 3.69-5.33 2.21-3.23 4.72-6.64 6.76-10.17 4.3-6.97 8.11-14.52 11.47-22.22 3.33-7.66 6.3-15.78 8.93-23.93 1.33-4.07 2.61-8.21 3.9-12.33 0.64-2.06 1.23-4.13 1.91-6.24 0.88-2.51 1.31-3.79 2.16-6.31 5.63-16.85 12.09-33.73 18.05-49.76 5.95-15.99 11.32-31.39 15.54-44.77 2.12-6.74 3.88-13.09 5.44-18.84 1.54-5.73 2.64-11.03 3.67-15.62 2.07-9.16 3.39-15.8 4.03-18.92 4.22-20.77 7.91-41.45 12.6-61.18 1.19-4.97 2.4-10.01 3.58-14.88 1.16-4.89 32.98-109.2 42.76-142.21 6.73-22.7 13.25-45.66 18.98-68.73 4.09-16.48 6.02-25.77 6.02-25.77 0 0-1.76 9.33-5.56 25.86-5.33 23.15-11.54 46.2-17.97 68.95-9.32 33.03-19.69 66.1-29.49 99.17-2.43 9.22-5.32 18.64-7.97 28.21-1.2 4.78-2.63 9.63-3.77 14.47-1.12 4.81-2.3 9.8-3.44 14.72-4.54 19.55-8.17 40.13-12.33 60.88-0.63 3.13-1.92 9.77-3.96 18.98-1.02 4.6-2.09 9.92-3.63 15.71-1.54 5.83-3.3 12.29-5.41 19.08-4.19 13.5-9.51 28.94-15.37 44.95-5.88 16-12.21 32.81-17.65 49.37-0.83 2.48-1.24 3.73-2.08 6.2-0.67 2.07-4.42 14.5-5.73 18.59-2.62 8.24-5.58 16.53-8.97 24.41-1.39 3.27-2.94 6.49-4.5 9.68 2.96-4.13 10.52-14.9 10.88-15.43 5.44-10.3 11.11-21.84 16.11-33.26 7.39-16.92 12.65-34.52 16.4-48.22 3.74-13.67 6.11-24.05 6.86-27.23 2.48-10.55 4.75-21 7.16-31.01 2.4-10.06 5.33-20.02 8.04-29.27 5.46-18.57 8.59-35.2 10.85-49.23 2.25-13.98 4.33-25.52 6.17-33.45 0.91-3.93 1.78-7.08 2.38-9.16 0.61-2.1 0.91-3.21 0.91-3.21 0 0-0.25 1.12-0.77 3.19-0.51 2.11-1.25 5.24-2.01 9.14-1.52 7.87-3.16 19.25-4.97 33.14-1.81 13.85-4.56 30.77-9.71 49.41-2.56 9.31-5.28 19.04-7.56 28.97-2.27 9.9-4.49 20.31-6.93 30.9-0.74 3.19-3.03 13.57-6.68 27.3-3.17 11.94-7.52 26.69-13.35 41.77 2.7-6.04 5.17-12.25 7.44-18.5 4.06-11.12 8.23-22.35 11.55-32.99 3.32-10.63 6.29-20.75 8.75-29.69 4.9-17.85 7.97-31.3 8.91-35.42 5.83-25.75 30.1-151.48 30.97-155.64 0.87-4.17 1.63-8.14 2.56-11.83 1.85-7.36 3.06-13.79 4.47-19 2.8-10.36 4.16-16.23 4.16-16.23 0 0-1.18 5.87-3.66 16.24-1.26 5.2-2.31 11.62-3.96 18.96-0.83 3.67-11.69 65.13-15.81 89.11-4.47 26.08-9.56 52.15-15.27 77.89-0.91 4.14-3.92 17.61-8.72 35.51-2.4 8.98-5.32 19.15-8.58 29.84-3.26 10.68-7.38 21.99-11.37 33.18-3.98 11.11-8.7 22.69-14.27 33.15-5.27 9.91-11.08 19.11-16.53 27.17q-0.2 0.39-0.41 0.78 0.87-1.16 1.74-2.42c2.6-3.73 5.8-8.03 8.82-12.87 1.51-2.42 3.24-4.97 4.81-7.64 1.57-2.65 3.18-5.51 4.8-8.42 6.45-11.57 12.83-25.18 18.47-39.59 5.64-14.41 11.16-29.92 15.6-45.13 8.2-28.11 14.83-57.29 20.55-86.29 1.21-6.14 8.05-46 8.61-48.88 6.02-36.34 11.83-72.89 18.94-108.85 3.34-16.9 6.25-33.18 9.53-48.47 2.68-15.27 6.35-29.76 9.84-42.67 7.01-25.91 13.37-47.31 16.96-62.13 1.79-7.42 3.07-13.32 3.88-17.28 0.81-3.97 1.24-6.07 1.24-6.07 0 0-0.38 2.11-1.11 6.09-0.74 3.98-1.89 9.91-3.56 17.36-3.32 14.9-9.33 36.48-15.94 62.34-3.3 12.93-6.7 27.15-9.21 42.42-3.06 15.21-5.79 31.44-8.96 48.27-6.74 35.84-25.46 151.1-26.64 157.23-5.58 29.11-12.08 58.39-20.15 86.61-4.38 15.32-9.85 30.94-15.49 45.52-4.96 12.82-10.53 24.93-16.23 35.81 1.67-1.38 6.95-5.82 7.57-6.33-0.23-0.33-0.35-0.48-0.58-0.81-0.67-0.38-1-0.56-1.66-0.94 1.58-2.28 5.23-7.23 9.62-14.55 4.39-7.3 9.46-17.07 14.24-28.43 4.78-11.37 9.21-24.41 13.22-38.24 4-13.8 7.92-28.65 11.47-43.27 6.57-26.98 12.16-54.8 16.63-82.55 1.9-11.78 19.58-134.78 22.13-151.06 2.55-16.27 5.34-31.92 8.29-46.56 2.93-14.67 6.46-28.35 8.9-40.88 4.91-25.14 8.34-45.98 11.41-60.28q1.14-5.36 2-9.52c0.67-2.74 3.01-12.68 3.01-12.68 0 0-2.12 10-2.74 12.75q-0.77 4.17-1.82 9.55c-2.77 14.34-5.81 35.09-10.35 60.33-2.28 12.66-5.61 26.37-8.34 40.87-2.73 14.53-27.13 185.02-28.96 196.81-4.34 27.81-9.78 55.69-16.22 82.75-3.48 14.62-7.27 29.38-11.25 43.34-2.55 8.94-5.28 17.53-8.19 25.68q1.36-2.95 3.01-6.65c1.61-3.67 3.6-7.88 5.45-12.56 1.85-4.68 3.89-9.83 5.93-15.33 1.02-2.75 2.16-5.62 3.13-8.56 0.96-2.92 4.88-15.28 5.87-18.5 1-3.19 1.96-6.51 2.78-9.8 1.66-6.61 3.45-13.51 5.02-20.39 1.56-6.87 3.07-14.02 4.37-21 4.81-25.91 8.67-52.49 11.87-78.88 1.35-11.26 5.04-42.19 5.35-44.82 3.83-33.58 8.79-67.01 14.09-100.37 4.47-28.11 9.18-56.4 14.09-84.21 1.07-6.02 2.35-11.9 3.42-17.31 1.07-5.43 1.91-10.7 3.13-15.5q1.67-7.23 3.01-13.49c0.9-4.15 1.63-7.98 2.59-11.34 3.53-13.5 5.26-21.13 5.26-21.13 0 0-1.57 7.66-4.82 21.28-0.88 3.38-1.54 7.21-2.36 11.38q-1.23 6.26-2.75 13.51c-1.13 4.79-14.78 88.7-18.94 116.68-4.94 33.19-9.73 66.49-13.47 99.82-0.29 2.62-3.81 33.45-5.12 44.69-3.05 26.41-6.76 53.02-11.43 78.97-1.27 7-2.74 14.2-4.27 21.1-1.55 6.97-3.33 13.95-4.96 20.62-0.82 3.33-1.77 6.68-2.77 9.95-1 3.25-4.89 15.78-5.85 18.75-0.97 2.98-2.1 5.88-3.13 8.66-2.06 5.59-4.09 10.81-5.95 15.57-1.86 4.75-3.85 9.03-5.48 12.73-3.27 7.41-5.77 12.67-6.87 15.06-1.33-0.25-1.99-0.37-3.32-0.6-0.64 1.62-1.29 3.31-1.95 4.9-2.43 5.87-4.97 11.35-7.46 16.31q1.02-1.27 2.12-2.62-0.05-0.02-0.09-0.04c0.92-1.35 2.95-4.35 5.77-8.6q1.05-1.4 2.21-2.98c0.99-1.43 2.1-3.04 3.28-4.77-0.1-0.02-0.15-0.03-0.25-0.04 0.5-0.98 1.56-3.17 3.07-6.22 1.51-3.03 3.38-7.06 5.88-11.49 1.1-1.98 2.24-4.13 3.43-6.34-0.65-0.13-0.99-0.2-1.64-0.32 1.01-2.36 3.53-7.52 6.53-14.89 2.99-7.36 6.59-17 9.97-28.05 3.38-11.07 6.68-23.86 10.15-37.17 3.49-13.41 6.69-27.7 9.02-41.65 4.31-25.78 7.34-52.53 9.74-78.99 2.05-22.59 3.95-39.77 4.34-45.01 0.33-4.33 23.88-158.21 29.08-186.25 1.12-6.09 16.32-79.8 16.32-79.8 0 0-23.81 136.52-28.21 164.77-5.22 33.44-10.92 67.16-13.94 100.59-0.47 5.2-2.19 22.25-4.12 44.76-2.26 26.49-5.14 53.31-9.31 79.15-2.27 14.05-5.46 28.65-8.87 41.99-1.1 4.29-2.12 8.56-3.19 12.72q0.5-1.01 1.07-2.14 1.19-3.91 2.38-8.22c4.41-16.05 9.74-36.73 13.38-57.1 5.32-29.72 9.49-60 13.23-90.2 0.77-6.35 15.32-128.2 15.95-132.51 1.25-8.64 2.1-16.58 3.23-23.45 0.84-5.21 3.32-21.07 3.82-24.44 0.84-5.55 1.22-8.6 1.22-8.6 0 0-0.08 0.73-0.23 2.08 0.54-3.62 3.11-19.02 3.72-22.9 1.51-7.73 2.64-14.43 3.68-19.9 2.35-10.87 3.5-16.97 3.5-16.97 0 0-1.12 6.22-3.03 17.07-0.96 5.4-4.3 27.92-4.95 32.3-0.65 4.37-1.36 8.98-1.91 13.81-3.08 22.24-5.51 44.58-7.25 66.95-0.96 12.39-5.05 86.23-5.57 92.45-0.5 6.22-3.54 42.7-4.72 53.5-1.18 10.82-2.41 22.27-4.64 33.83-1.1 5.72-2.18 11.56-3.33 17.25q-1.79 7.53-3.63 14.78 1.57-4.8 3.12-9.72c1.52-5.55 3.16-11.29 4.45-16.85 7.42-31.99 11.74-65.59 13.8-98.98 0.85-13.8 1.26-27.3 2.04-40.49 0.38-6.55 0.58-13.12 0.83-19.42 0.13-3.17 0.12-6.3 0.38-9.45 0.26-3.14 0.46-6.28 0.68-9.36 1.73-24.64 4.31-47.31 6.39-66.38 2.07-19.1 6.54-62.4 6.54-62.4 0 0-3.33 43.25-5.01 62.27-1.69 19.01-3.83 41.54-5.25 65.92-0.18 3.04-2.53 64.54-3.35 78.33-1.97 33.59-6.03 67.52-13.32 99.78-0.68 2.96-1.51 5.98-2.28 8.98q1.36-3.71 2.73-7.68c0.79-2.64 1.59-5.32 2.36-7.93 1.73-5.78 3.02-11.6 4.36-17.19 2.7-11.16 5.04-22 6.76-31.44 1.73-9.45 3.22-17.81 4.23-24.26 1.02-6.43 1.51-11.09 1.8-13.28 0.92-7.25 1.74-14.52 2.43-21.59 0.7-7.05 1.03-14.03 1.4-20.84 0.38-6.81 0.73-13.56 0.86-20.12 0.13-6.55 0.22-64.28 0.57-86.78-0.02-4.85 0.17-9.54 0.32-13.96 0.14-4.42 0.13-8.64 0.35-12.53 0.43-7.82 0.66-14.74 1.14-20.28 0.96-11.09 1.52-17.42 1.52-17.42 0 0-0.38 6.3-1.05 17.36-0.32 5.52-0.39 12.39-0.63 20.13-0.13 3.86 0.75 105.91 0.68 112.45-0.05 6.55-0.35 13.38-0.68 20.22-0.32 6.87-0.62 13.89-1.29 21.01-0.09 1.05-0.21 2.15-0.32 3.22 0.93-6.5 1.79-12.92 2.56-19.16 1.2-9.6 2.01-18.87 2.78-27.7 1.52-17.6 2.55-33.82 2.82-47.03 0.51-26.59 0.3-43.4 0.3-43.4 0 0 0.91 16.5 1.27 42.9 0.18 13.2-0.48 29.31-1.7 46.95-0.61 8.81-1.29 18.13-2.42 27.75-1.11 9.63-2.46 19.61-3.97 29.79-0.45 3.07-1.87 13.03-4.25 26.19-0.99 5.56-2.21 11.77-3.53 18.27 3.23-13.39 6.1-26.8 8.34-37.51 1.2-5.71 1.96-10.73 2.59-14.61 0.62-3.87 3.65-25.49 4.74-33.76 0.55-4.14 0.93-8.25 1.26-12.22 0.33-3.99 0.66-7.93 0.94-11.74 1.1-15.22 2.01-29.31 2.02-40.61 0.01-22.8-0.21-37.35-0.21-37.35 0 0 0.91 14.21 1.78 36.8 0.44 11.26-0.1 25.29-0.91 40.53-0.21 3.81-0.47 7.75-0.74 11.75-0.26 4-0.57 8.12-1.09 12.31-1.03 8.33-2.12 17.05-3.39 25.9-0.19 1.34-0.59 4.16-1.19 8.07-0.61 3.92-1.32 8.97-2.48 14.72-1.22 6.08-2.6 13.09-4.18 20.4 1.6-6.35 3.09-12.67 4.43-18.8 1.16-5.35 2.37-10.68 3.38-15.81 1-5.11 4.37-25 5.12-29.71q0.92-7.07 1.71-13.69c1.05-8.84 1.94-17.18 2.37-24.6 0.43-7.45 0.85-14.31 1.12-20.28 0.04-5.91-0.13-28.11-0.13-28.11 0 0 0.97 21.91 1.13 27.77-0.1 5.95-0.32 12.77-0.54 20.21-0.22 7.42-0.9 15.76-1.78 24.64q-0.66 6.66-1.45 13.74-1 7.14-2.16 14.6c-0.79 4.99-1.59 10.17-2.54 15.31-0.95 5.16-2.12 10.53-3.24 15.92-2.24 10.76-5.07 21.94-8.02 33.21-0.9 3.39-3.91 14.42-8.35 28.99-3.1 10.15-7.08 22.15-11.36 34.54 3.81-9.79 6.35-16.94 7.22-19.62 13.06-39.89 24.32-80.06 30.33-121.57 1.14-7.88 2.19-15.13 2.85-21.41 0.64-6.25 2.54-29.96 2.54-29.96 0 0-0.14 4.88-0.59 13.69-0.22 4.41-0.49 9.87-0.96 16.07-0.45 6.25-1.31 13.51-2.26 21.4-5.01 41.85-15.91 82.2-28.89 122.33-9.08 26.55-20.37 52.12-31.96 77.66-2.28 5.63-4.44 10.8-6.36 15.35 9.74-20.56 19.48-41.04 27.93-62.17 8.55-21.36 16.36-43.06 23.85-64.78 6.96-20.12 12.54-38.63 16.01-54.21 3.48-15.6 4.99-28.41 5.31-36.98 0.08-2.13 0.14-4.06 0.16-5.69 0.02-1.62-0.06-3-0.07-4.12-0.05-2.2-0.1-3.38-0.1-3.38 0 0 0.11 1.16 0.24 3.32 0.06 1.09 0.17 2.42 0.23 4.04 0.02 1.64 0.05 3.55 0.05 5.66 0 8.48-1.14 21.37-4.25 37.13-3.11 15.75-8.38 34.52-15.05 54.75-7.22 21.83-14.94 43.63-23.41 64.99-10.4 26.21-22.53 51.72-34.9 77.11 2.72-4.76 4.65-8.24 5.4-9.64 7.49-13.82 14.46-27.36 20.21-39.78 5.75-12.41 10.65-23.91 14.63-33.54 3.98-9.63 12.87-31.42 12.87-31.42 0 0-4.11 12.33-11.39 31.79-3.63 9.71-8.15 21.37-13.66 33.95-5.51 12.57-12.42 26.41-19.92 40.29-2.26 4.17-30.6 53.81-31.91 56.1q-2.82 5.8-5.23 10.77c3.16-4.62 6.41-9.37 9.54-14.18 12.42-19.08 24.56-38.47 34.96-58.94 14.24-29.69 27.28-59.58 37.84-90.76 8.09-23.9 12.34-39.03 12.34-39.03 0 0-0.93 3.78-2.68 10.56-1.77 6.8-4.44 16.62-8.12 28.65-9.73 31.65-22.38 61.75-36.56 91.67-10.4 20.73-22.5 40.4-34.91 59.76-1.78 2.78-3.63 5.54-5.45 8.28 3.78-4.8 7.57-9.77 11.16-14.85 10.89-15.42 21.24-31.47 29.02-44.49 7.77-13.03 12.94-23.12 14.55-26.21 10.65-20.44 18.96-41.44 24.59-60.35 5.63-18.91 8.44-36.33 10.75-50.82 1.16-7.24 4.79-30.62 5.53-34.69 1.49-8.2 2.39-12.85 2.39-12.85 0 0-5.29 39.95-6.27 47.2-1.95 14.46-4.27 31.88-9.72 51.22-5.45 19.37-13.67 40.69-24.49 61.47-1.63 3.12-6.82 13.39-14.6 26.6-7.78 13.21-18.11 29.41-28.97 44.98-8.41 12.04-17.64 23.21-25.53 32.99 7.42-8.11 15.29-16.81 22.37-25.94 13.42-17.33 25.7-36.67 34.52-52.1 4.42-7.71 8.19-14.69 10.93-20.09 2.75-5.4 4.7-9.4 5.55-11.25 10.67-23.04 20.25-47.06 26.8-72.03 5.9-22.49 8.5-43.05 10.46-60.18 0.99-8.58 5.64-55.89 5.64-55.89 0 0-3.23 46.92-3.99 55.43-1.54 17.04-3.71 37.67-9.39 60.55-6.32 25.43-15.89 49.79-26.67 73.15-0.85 1.87-2.82 5.93-5.57 11.41-2.76 5.47-6.54 12.55-10.97 20.37-8.86 15.67-21.11 35.22-34.76 52.98-13.7 17.85-29.61 33.48-40.76 46.53-2.77 3.25-5.54 6.27-7.8 9.11q-2.77 3.49-5.13 6.36c4.52-4.61 9.59-9.91 15.05-15.7 8.86-9.39 18.54-20.63 28.55-32.48 5.01-5.93 9.91-12.45 14.82-18.93 4.93-6.48 9.93-13.2 14.51-20.13 4.56-6.93 9.38-13.9 13.61-20.92 4.24-7.02 8.28-14.27 12.2-21.14 1.97-3.44 3.75-6.98 5.48-10.43 1.72-3.44 8.25-16.84 9.78-20.05 1.44-3.23 2.74-6.43 4.02-9.51 2.57-6.14 4.94-11.98 6.99-17.29 2.06-5.3 3.58-10.27 4.98-14.53 2.82-8.5 4.83-14.78 5.55-17.7 2.43-9.73 4.94-19.43 6.94-28.97q2.51-14.27 4.57-28.14c0.89-9.13 1.74-18.18 2.27-26.88 0.53-8.63 0.54-17.32 0.37-25.36-0.61-27.79-3.49-56.49-8.2-84.68-3.93-23.5-7.91-42.33-10.71-55.21-2.8-12.92-4.48-20.11-4.48-20.11 6.46 24.54 12.06 49.31 16.73 74.22 5.25 28.06 8.49 56.71 9.4 84.46 0.27 8.07 0.35 16.84-0.12 25.55-0.47 8.8-1.28 17.98-2.11 27.22-1.36 9.38-2.85 18.91-4.51 28.55-2 9.69-4.53 19.54-6.98 29.42-0.74 2.97-2.75 9.34-5.57 17.97-1.42 4.33-2.95 9.38-5 14.75-2.07 5.4-4.45 11.32-7.04 17.56-1.28 3.13-2.59 6.37-4.04 9.66-1.53 3.25-8.11 16.86-9.84 20.36-1.74 3.5-3.54 7.1-5.51 10.59-3.96 6.97-8.02 14.32-12.3 21.46-4.27 7.12-9.11 14.19-13.71 21.21-4.6 7.03-9.66 13.85-14.61 20.42-4.94 6.56-9.91 13.19-14.93 19.17-10.08 11.99-19.87 23.36-28.72 32.82-9.8 10.5-18.39 19.28-24.78 25.61 2.96-2.64 13.81-12.49 16.09-14.63 2.29-2.14 4.58-4.48 6.92-6.82 4.67-4.64 9.58-9.6 14.48-14.81 4.77-5.36 16.65-19.25 18.11-20.98 1.38-1.82 2.08-2.74 3.46-4.57 2.31-3.07 4.66-6.16 6.89-9.26 16.78-23.38 32.96-47.55 46.71-73.22 11.74-21.91 18.88-39.06 20.89-44.4 12.09-33.32 22.38-66.87 25.66-101.69 2.53-26.91 3.45-54.32 1.78-81.78-1.38-22.75-3.52-40.92-5.09-53.45-1.57-12.53-2.63-19.4-2.63-19.4 0 0 1.23 6.77 3.1 19.09 1.88 12.32 4.41 30.26 6.22 52.88 2.2 27.49 1.63 54.92-0.6 81.9-2.93 35.32-13.26 69.36-25.47 103.16-2.03 5.42-9.07 23.24-21.01 45.05-13.99 25.55-29.95 50.32-46.89 74.05-2.24 3.14-9.01 12.15-10.41 14-1.47 1.78-13.57 16-18.42 21.48-4.98 5.33-9.93 10.35-14.67 15.1-2.37 2.37-4.69 4.74-7.01 6.91-2.3 2.17-15.33 14.09-19.12 17.4-3.77 3.31-20.75 17.45-22.72 19.06-0.65 1.15-1.33 2.33-1.97 3.45 4.91-3.97 21.78-16.57 42.44-36.19 5.21-4.96 10.84-10.32 16.45-16.17 2.8-2.92 5.76-5.92 8.6-9 2.86-3.08 5.76-6.37 8.65-9.66 11.59-13.17 23.03-28.14 33.69-43.67 2.66-3.89 5.34-7.81 7.98-11.71 2.63-3.9 5.25-7.88 7.62-11.87 4.74-7.98 9.52-16 13.98-23.84 4.3-7.94 8.23-15.86 11.92-23.39 1.84-3.77 3.74-7.5 5.34-11.17 1.59-3.66 10.16-24.34 12.54-30.39 2.14-6.09 4.05-11.64 5.65-16.5 3.19-9.7 5.54-16.77 6.33-20.12 2.87-11.08 5.73-22.1 8.05-32.98q3.04-16.28 5.49-32.13c1.14-10.45 2.03-20.84 2.94-30.83 0.23-2.52 0.32-5.01 0.37-7.44 0.05-2.43 0.3-16.91 0.32-21.63-1.84-31.96-5.54-62.98-13.69-93.92q-1.23-4.73-2.43-9.24c-0.89-2.9-6.05-19.11-7.64-23.92-3.48-9.29-6.49-17.41-9.17-23.72-5.32-12.49-8.72-19.38-8.72-19.38 0 0 3.56 6.71 9.13 18.88 2.82 6.16 5.98 14.13 9.64 23.28 1.67 4.73 7.12 20.74 8.07 23.62 0.85 2.96 1.71 6.03 2.59 9.13 8.72 30.9 12.76 61.9 14.95 93.93 0.02 4.78-0.1 19.42-0.14 21.88-0.03 2.47-0.11 4.99-0.31 7.53-0.85 10.09-1.69 20.57-2.79 31.14-1.62 10.67-3.42 21.53-5.41 32.51-2.33 11.02-5.2 22.17-8.1 33.39-0.79 3.39-3.14 10.55-6.35 20.38-1.61 4.91-3.52 10.54-5.66 16.7-2.39 6.13-10.99 27.08-12.6 30.81-1.61 3.71-3.5 7.49-5.36 11.31-3.71 7.64-7.67 15.66-11.99 23.71-4.51 7.96-9.3 16.08-14.09 24.18-2.4 4.05-5.02 8.06-7.67 12.02-2.65 3.95-5.34 7.92-8.02 11.85-7.12 10.43-14.63 20.64-22.32 30.26q3.71-4.25 7.41-8.78c2.17-2.66 4.48-5.4 6.69-8.15 4.48-5.6 8.81-11.32 12.77-16.78 2.12-2.92 4.27-5.93 6.29-8.92 15.14-22.43 29.36-46.1 40.68-71 2.39-5.28 4.55-10.38 6.53-14.98 1.97-4.6 3.7-8.84 5.08-12.55 2.76-7.4 4.83-12.82 5.68-15.33 18.64-55.15 29.56-115.02 25.01-174.73-0.2-2.68-0.3-5.37-0.58-7.86-0.28-2.49-0.58-4.94-0.88-7.29-0.59-4.7-1.11-9.21-1.77-13.29-1.54-8-2.74-15.09-4.1-20.5-2.71-10.76-4.51-16.75-4.51-16.75 0 0 1.98 5.84 4.98 16.32 1.51 5.3 2.88 12.28 4.61 20.18 0.75 4.03 1.37 8.51 2.07 13.18q0.53 3.5 1.03 7.23c0.33 2.48 0.49 5.15 0.74 7.83 5.77 60.09-4.89 120.49-23.54 176.13-0.85 2.54-2.93 8.04-5.7 15.53-1.38 3.75-3.1 8.06-5.09 12.72-0.22 0.5-0.45 1.05-0.68 1.57 11.88-26.75 23.02-53.64 30.41-80.97 8.22-30.37 13.42-62.9 13.63-95.54 0.18-26.64-2.97-47.09-5.54-60.47-1.3-6.77-2.62-11.84-3.49-15.29-0.85-3.43-1.34-5.25-1.34-5.25 0 0 0.52 1.77 1.47 5.13 0.94 3.37 2.38 8.34 3.83 15 2.86 13.18 6.44 33.44 6.7 60.14 0.31 32.9-4.58 65.75-12.61 96.37-10.23 39.03-27.04 77.46-46.62 113.58-2.85 5.26-12.37 21.72-26.16 42.46-2.33 3.5-4.7 7.09-7.13 10.58-4.19 6.03-8.45 12.07-12.7 17.94-4.48 5.65-9.01 11.17-13.33 16.5q-4.02 4.96-8.07 9.58c-7.33 8.76-15 17.52-22.85 26-21.43 23.13-44.64 44.96-67.09 66.74-4.25 4.13-8.32 8.05-11.96 11.74q3.7-3.12 7.57-6.34c6.68-5.54 13.69-11.25 20.51-17.4 13.6-12.24 27.31-24.95 37.7-35.33 10.4-10.38 18.04-18.65 20.31-21.17 26.25-29.1 49.85-61.43 71.1-95.11 8.21-13.03 26.3-42.68 26.3-42.68 0 0-2.29 4.26-6.57 11.82-4.26 7.56-10.57 18.46-18.49 31.7-7.91 13.22-17.67 29.06-29.38 45.46-5.85 8.2-12.14 16.97-19.05 25.45-3.45 4.25-7.04 8.57-10.69 12.86-3.65 4.3-7.39 8.72-11.3 12.9-2.34 2.5-9.93 10.89-20.39 21.42-10.39 10.5-24.12 23.36-37.71 35.74-6.8 6.17-14.01 12.12-20.57 17.61-6.59 5.51-12.82 10.75-18.06 15.59-2.7 2.35-5 4.76-7.23 6.82-2.16 2.12-3.99 4.14-5.66 5.84-3.2 3.5-5.3 6.08-6.34 7.19-1-0.58-1.5-0.85-2.5-1.43-1.46 2.07-2.6 3.64-3.2 4.52-1.45-0.64-2.17-0.95-3.61-1.59 0.57-0.86 1.66-2.38 3.08-4.38-0.24-0.1-0.36-0.15-0.6-0.25-1.08 1.59-2.18 3.18-3.23 4.72-2.27 3.37-4.53 6.73-6.85 9.8-2.68 3.56-5.36 6.97-7.91 10.23 2.38-1.3 5.38-2.96 8.77-4.85-0.2-0.15-0.3-0.22-0.49-0.36 1.37-1.38 4.28-4.58 8.61-8.89 2.22-2.08 4.69-4.62 7.53-7.15 2.84-2.53 5.95-5.47 9.4-8.31 6.78-5.9 14.66-12.15 22.87-18.75 4.08-3.28 8.33-6.68 12.53-10.17 4.2-3.49 8.41-7.25 12.61-10.95 16.8-14.84 33.37-30.28 46.09-43.12 12.74-12.84 21.85-22.99 24.56-26.19 31.53-37.19 58.24-77.42 79.83-121.46 4.14-8.46 7.83-16.24 10.92-23.06 3.1-6.81 14.16-32.9 14.16-32.9 0 0-10.34 26.29-13.24 33.19-2.91 6.91-6.46 14.73-10.42 23.3q-2.99 6.44-6.35 13.41c-2.35 4.6-4.82 9.39-7.42 14.29-5.21 9.77-10.8 20.29-17.59 30.79-14.12 23.18-30.56 44.27-47.91 64.78-2.73 3.22-11.91 13.51-24.68 26.5-12.79 13.01-29.33 28.57-46.15 43.54-4.2 3.74-8.4 7.52-12.63 11.06-4.24 3.54-8.5 6.98-12.6 10.3-8.15 6.6-15.9 12.8-22.47 18.57-3.37 2.78-6.35 5.62-9.1 8.07-2.74 2.45-5.09 4.9-7.23 6.9-0.33 0.33-0.61 0.62-0.92 0.94 1.9-1.16 15.91-9.93 21.08-13.27 5.12-3.53 19.8-13.99 22.03-15.62 2.21-1.71 4.33-3.35 6.3-4.9 7.9-6.23 13.72-11.02 15.53-12.51 20.08-18.17 39.58-36.4 57.39-56.86 3.53-3.87 6.47-7.61 9.1-10.86 2.64-3.25 12.41-15.58 12.41-15.58 0 0-9.18 12.83-11.68 16.2-2.5 3.37-5.33 7.26-8.74 11.29-17.31 21.39-36.8 40.9-56.99 58.55-1.74 1.53-19.76 16.04-21.99 17.78-2.26 1.69-17.05 12.4-22.22 16.02-5.22 3.43-20.36 13.04-22.69 14.49q-3.53 2.05-6.71 3.85c-8.42 4.78-14.73 8.17-16.56 9.17-0.05-0.3-0.07-0.46-0.12-0.74-0.09 0.11-13.91 16.57-14.9 17.76 4.26-2.4 14.69-8.35 28.27-16.45 7.48-4.48 15.82-9.85 24.59-15.6 4.39-2.87 8.95-5.87 13.42-8.96 4.5-3.11 8.96-6.74 13.4-10.18 4.46-3.46 17.6-14.05 19.74-15.8q3.11-2.77 6.14-5.53c8.08-7.32 15.63-14.4 22.27-20.76 12.92-13.22 22.26-23.56 25.03-26.72 31.87-36.55 59.88-78.02 83.75-121.33 9.18-16.65 16.02-30.59 20.68-40.24 4.66-9.63 7.13-15.04 7.13-15.04 0 0-2.31 5.48-6.68 15.2-4.38 9.73-10.88 23.82-19.73 40.68-23.19 44.1-51.02 85.83-83.04 122.87-2.79 3.22-12.23 13.63-25.19 27.1-6.69 6.47-14.3 13.67-22.45 21.11q-3.06 2.8-6.2 5.62c-2.16 1.79-15.44 12.58-19.93 16.1-4.49 3.51-9 7.2-13.54 10.37-4.54 3.15-9.15 6.22-13.58 9.14-8.84 5.84-17.35 11.38-24.8 15.85-14.96 8.94-26.15 15.27-29.44 17.12-0.34-1.34-0.52-2.02-0.86-3.36-4.56 5.36-7.9 9.19-9.62 11.15-0.65-0.33-0.98-0.48-1.62-0.81-0.98 1.16-1.94 2.32-2.87 3.41q2.36-0.8 5.18-1.91c6.91-2.49 15.71-6.45 24.37-10.8 17.39-8.74 34.39-20.39 37.45-22.51 20.42-14.14 38.24-29.03 50.92-40 12.69-10.98 20.37-18.08 20.37-18.08 0 0-7.22 7.71-19.53 19.36-12.29 11.63-29.88 27.3-50.62 41.66-3.11 2.16-20.28 14.22-38.06 23.37-8.84 4.56-17.89 8.71-25.03 11.36-3.57 1.44-6.67 2.47-9.06 3.26q-0.69 0.23-1.31 0.43c-5.06 5.73-8.83 9.71-10.51 11.6-1.18-0.7-1.76-1.05-2.94-1.75-0.23 0.28-4.13 5.12-5.61 6.89q-0.09 0.11-0.18 0.21c7.43-3.32 16.65-7.57 27.19-12.62 11.31-5.41 24.12-11.96 37.17-19.82 13.1-7.89 26.48-17.64 39.51-28.21 24.37-19.8 48.02-41.41 69.67-64.15 9.33-9.81 17.21-18.91 23.3-25.92 6.09-7.04 10.29-12.31 12.21-14.79 24.43-31.34 46.78-64.56 65.77-99.3 15.36-28.09 27.93-58.69 38.43-89.36 8.95-26.12 14.87-47.73 18.71-62.67 3.83-14.94 5.69-23.32 5.69-23.32 0 0-1.67 8.37-5.19 23.3-3.53 14.92-9.06 36.57-17.63 62.83-10.17 31.11-22.85 61.85-37.6 90.12-18.26 34.97-41.27 68.73-65.87 100.33-1.94 2.5-6.16 7.83-12.28 14.93-6.12 7.09-14.03 16.28-23.41 26.19-21.78 23-45.54 44.83-70.07 64.87-12.98 10.6-26.87 20.78-40.22 28.85-7.93 4.79-23.15 12.9-23.15 12.9 0 0 1.09-0.54 1.64-0.82 4.02-1.97 8.19-4.2 12.3-6.5 16.38-9.15 32.72-19.36 45.29-28.11 6.31-4.39 11.84-8.37 16.04-11.48 4.2-3.12 7.25-5.49 8.64-6.59 32.25-25.56 63.01-54.2 88.9-86.92 5-6.32 9.49-12.22 13.16-17.46 3.67-5.22 6.9-9.83 9.32-13.65 4.86-7.64 7.49-11.93 7.49-11.93 0 0-2.46 4.36-7.05 12.14-2.31 3.9-5.39 8.6-8.94 13.93-3.54 5.35-7.89 11.4-12.78 17.89-25.44 33.71-56.21 62.89-88.76 88.83-1.39 1.12-4.47 3.51-8.72 6.67-4.23 3.17-9.81 7.22-16.15 11.68-12.67 8.9-29.15 19.32-45.68 28.65-4.14 2.34-8.32 4.64-12.49 6.7-4.15 2.05-8.27 4.19-12.29 6.04-8.03 3.46-15.73 6.76-22.36 9.14-3.34 1.2-6.5 2.42-9.35 3.4-2.82 0.99-11.77 3.89-13.28 4.38q-2.61 1.16-4.02 1.78c-0.12-0.93-0.18-1.4-0.31-2.35-5.44 5.61-10.87 10.55-15.97 14.8 2.76-1 19.14-7.15 24.59-9.28 5.45-2.15 11.42-4.82 17.78-7.54 30.85-13.23 60.8-30.04 87.91-48.43 28.53-19.36 55.94-42.44 80.4-67.95 5.27-5.5 10.14-10.78 14.57-15.62 4.29-4.96 8.15-9.52 11.49-13.52 6.7-8.02 11.41-13.87 13.48-16.76 26.3-36.09 50.15-73.42 68.54-113.89 14.89-32.73 28.56-66.17 38.57-101.02 2.26-7.35 4-14.38 5.64-21.01 1.64-6.6 3.27-12.96 4.42-18.82 2.29-11.73 4.35-21.95 5.5-30.19 2.31-16.51 3.26-25.68 3.26-25.68 0 0-0.77 9.13-2.74 25.55-1 8.22-2.88 18.43-4.98 30.17-1.05 5.86-2.6 12.25-4.13 18.86-1.55 6.65-3.18 13.72-5.36 21.09-9.59 35.07-22.97 68.73-37.63 101.66-18.23 40.95-42.17 78.64-68.67 115.06-2.09 2.91-6.83 8.84-13.58 16.95-3.39 4.07-7.26 8.69-11.58 13.71-4.46 4.9-9.39 10.24-14.7 15.82-24.7 25.9-52.41 49.36-81.26 69-21.71 14.79-45.34 28.62-69.64 40.45 2.35-0.99 18.71-8.04 20.51-8.84 1.49-0.71 2.98-1.5 4.47-2.24 22.82-11.36 44.74-24.81 65.31-39.85 17.97-13.14 30.92-24.25 34.78-27.73 44.81-40.44 84.58-86.4 115.33-139.28 3.06-5 5.63-9.95 8.13-14.56 2.47-4.59 4.9-9 6.9-13.16 4-8.31 7.56-15.51 10.11-21.45 5.12-11.91 7.77-18.58 7.77-18.58 0 0-2.47 6.71-7.27 18.65-2.41 5.99-5.83 13.24-9.66 21.62-1.91 4.21-4.26 8.67-6.66 13.32-2.41 4.65-4.91 9.65-7.89 14.72-30.19 53.9-69.98 100.54-115.17 141.35-3.9 3.51-16.96 14.78-35.12 28.15-21.02 15.46-43.34 28.73-66.16 40.64-1.49 0.78-3.04 1.57-4.56 2.29-1.82 0.82-10.61 4.68-13.62 5.98-6.02 2.59-11.98 5.1-17.7 7.29-11.5 4.4-64.01 23.67-66.44 24.54-6.73 4.69-11.8 7.74-14.33 9.33-0.21-0.44-0.32-0.67-0.53-1.11q-0.42 0.32-0.83 0.65c-2.89 2.26-5.51 4.2-7.67 5.81 7.79-1.84 31.46-7.21 63.09-17.55 8.1-2.65 16.93-5.93 26.01-9.34 9.1-3.44 18.61-7.58 28.36-11.79 20.57-9.38 40.72-19.92 59.93-31.61 19.93-12.13 39.4-25.56 57.42-40.52 17.76-14.74 34.1-30.33 47.11-44.82 17.31-19.28 34.45-39.98 48.66-61.61 30.93-47.08 56.82-99.17 72.3-153.77 12.02-42.4 20.53-86.25 22.61-130.89 1.29-27.87 0.28-56.22-4.22-83.65-0.75-4.62-1.52-8.77-2.17-12.34-0.76-3.48-3.63-15.98-3.63-15.98 0 0 3.09 12.3 3.91 15.73 0.71 3.53 1.55 7.62 2.38 12.2 4.98 27.23 6.37 55.5 5.4 83.26-1.55 44.83-9.72 88.89-21.49 131.51-15.26 55.23-41.27 107.86-72.46 155.41-14.36 21.89-31.65 42.9-49.14 62.45-13.15 14.7-29.69 30.53-47.68 45.52-18.26 15.21-37.98 28.86-58.17 41.18-19.42 11.85-39.79 22.53-60.57 32.03-9.85 4.25-19.45 8.46-28.65 11.93-5.65 2.13-11.15 4.19-16.49 6.1 9.39-2.88 19.23-6.07 29.47-9.73 16.99-6.07 35.33-13.93 52.64-23.49 33.55-18.49 66.26-40.04 95.79-65.36 6.44-5.54 12.49-10.76 17.86-15.76 5.37-4.99 10.29-9.58 14.42-13.64 8.3-8.14 14.24-14.38 16.91-17.26 34.14-36.95 64.42-78.19 89.79-121.92 2.9-5.01 5.68-10.2 8.42-15.23q3.91-7.64 7.59-15.13c4.92-9.98 9.57-19.78 13.91-29.29q1.64-3.58 3.23-7.1c0.97-2.37 6.57-16.32 8.32-20.85 3.51-9.03 6.78-17.76 9.8-26.13 8.95-26.48 16.84-53.49 22.9-80.68 4.27-19.23 6.38-30.05 6.38-30.05 0 0-1.92 10.78-5.88 30-5.62 27.26-13.18 54.32-21.84 80.86q-4.4 12.65-9.54 26.3c-1.7 4.54-7.2 18.59-8.15 20.97q-1.56 3.56-3.17 7.16c-4.3 9.61-8.88 19.49-13.74 29.56q-3.65 7.56-7.53 15.28c-2.72 5.08-5.49 10.33-8.38 15.39-25.32 44.27-55.74 85.9-90.18 123.21-2.68 2.91-8.69 9.21-17.05 17.46-4.18 4.1-9.13 8.75-14.55 13.81-5.4 5.05-11.53 10.49-18.01 15.94-29.86 25.08-62.67 47.41-96.79 66.28-17.48 9.67-36.27 17.78-53.45 23.93-17.18 6.16-33.41 11.09-47.64 15.17-7.1 2.03-31.48 9.04-36.21 10.41-9.54 2.77-16.42 5.02-19.5 5.89 0.08-1.7 0.11-2.55 0.18-4.24 1.75-0.5 4.75-1.43 8.72-2.64-3.95 0.93-6.93 1.59-8.76 2.01 0.3-1.59 0.46-2.4 0.76-3.98-2.42 1.8-4.25 3.17-5.38 4-0.08-0.09-0.12-0.14-0.21-0.24-8.32 6.83-14.55 11.36-16.94 13.21-1.04-1.11-1.56-1.67-2.6-2.78 3.72-2.92 17.02-12.51 32.89-27.1 17.91-16.47 34.11-35.13 46.34-56.32 11.37-19.7 21.16-40.36 29.48-61.51 6.96-17.67 11.48-30.91 12.84-34.99 8.55-25.54 16.34-51.79 25.5-77.17 7.69-21.32 16.34-42.65 25.38-63.41 7.81-17.95 26.15-58.39 26.15-58.39 0 0-17.17 40.66-24.56 58.62-8.52 20.73-16.73 42-24.06 63.21-8.77 25.34-16.34 51.51-24.75 76.91-1.35 4.09-5.85 17.4-12.64 35.13-8.19 21.38-17.95 42.27-29.31 62.17q-2.36 4.14-4.76 8.24c-1.73 2.74-3.7 5.44-5.5 8.12-1.81 2.68-3.81 5.31-5.83 7.87-2.02 2.54-3.96 5.15-6.07 7.56-3.2 3.67-6.37 7.31-9.6 10.76 1.23-1.11 2.43-2.2 3.69-3.35 8.94-8.27 18.4-18.39 26.31-29.77 3.77-5.73 7.52-11.66 10.96-17.83 3.43-6.14 7.19-12.43 10.27-18.69 11.33-22.97 21.59-46.63 30.18-71.07 7.15-20.38 11.71-35.62 13.15-40.29 2.4-7.83 4.64-15.64 6.93-23.23 2.3-7.63 4.33-15.26 6.63-22.63 2.33-7.43 4.59-14.8 6.78-21.99q3.92-10.8 7.38-21.13c9.44-24.54 19.17-48.98 29.53-73.06 8.89-20.73 16.16-37.7 21.07-49.41 4.9-11.71 7.49-18.29 7.49-18.29 0 0-18.53 47.24-27.04 68.02-9.84 24.05-19.78 48.72-28.24 72.87-10.03 28.62-18.21 58.97-26.92 88.56-1.39 4.71-5.91 19.94-12.95 40.37-8.48 24.61-18.63 48.45-29.87 71.59-3.07 6.32-6.83 12.68-10.24 18.89-3.39 6.18-7.24 12.5-11.15 18.33-7.93 11.83-18 22.49-27.2 31.03-1.24 1.15-2.42 2.22-3.63 3.32 8.65-6.56 18.89-15.61 28.86-26.68 5.45-6.05 10.78-12.87 15.79-20.09 5-7.19 9.63-15.02 13.86-23.04 4.22-8 8.05-16.42 11.49-24.88 3.41-8.42 6.56-17.16 9.49-25.78 10.85-31.95 20.6-64.73 29.97-97.34 8-27.87 14.44-48.9 16.48-55.38 6.74-21.48 13.88-42.82 21.63-63.27 7.75-20.43 16.15-40.2 24.3-58.92 14.56-33.46 29.52-66.99 42.89-100.79 9.17-23.16 18.09-46.65 26.15-70.33 5.76-16.89 8.62-26.47 8.62-26.47 0 0-2.68 9.62-8.16 26.62-7.69 23.82-16.29 47.41-25.18 70.68-12.93 33.87-27.56 67.47-41.84 100.99-7.96 18.71-16.18 38.35-23.75 58.62-7.59 20.3-14.59 41.45-21.26 62.81-2.02 6.45-8.33 27.35-16.16 55.13-9.19 32.6-18.75 65.39-29.41 97.31-2.89 8.65-5.99 17.39-9.42 25.97-3.44 8.61-7.29 17.18-11.56 25.38-4.28 8.22-9 16.29-14.14 23.72-5.15 7.46-10.64 14.55-16.27 20.84q-1.74 1.95-3.48 3.84 0.48-0.15 1.06-0.34c1.34-0.6 2.92-1.32 4.68-2.12 1.24-1.49 7.62-9.26 9.39-11.38 1.78-2.15 3.43-4.64 5.3-7.25 1.87-2.6 3.84-5.45 5.93-8.47 1.96-3.04 3.88-6.29 5.92-9.7q1.53-2.56 3.12-5.25 1.46-2.72 2.93-5.54c1.93-3.74 4.04-7.76 5.91-11.79 7.55-16.24 14.69-35.05 21.96-54.88 3.62-9.88 49.95-142.35 64.23-181.76 1.54-4.25 2.95-8.47 4.31-12.5q2.34-6.01 4.41-11.55c2.76-7.38 5.17-14.13 7.24-20 1.05-2.93 1.92-5.7 2.9-8.2 0.99-2.5 5.4-14.04 6.15-16.04 18.9-50.7 38.5-101.33 55.21-152.83 7.46-23 29.66-96.13 31.13-101.3 3.23-10.24 5.98-20.34 8.88-29.76zm-9.63 276.23c-1.99 11.51-4.53 23.15-7.09 33.98 2.67-7.98 5.55-16.88 7.88-26.09 1.35-5.35 2.82-10.94 4.19-16.58 1.17-5.61 2.26-11.35 3.39-16.99 2.25-11.34 3.58-22.83 4.82-33.59 1.24-10.74 2.26-21.08 3.12-30.2 0.86-9.12 6.63-94.24 7.15-102.51-0.48 4.37-8.2 76.8-8.78 82.93-0.57 6.15-1.3 12.46-2.05 18.8-3.61 30.2-7.52 60.5-12.63 90.25zm-29.85 100.21c0.87-1.96 4.13-9.27 4.85-10.89-0.08-0.03-0.13-0.04-0.22-0.08-0.49-0.02-0.74-0.04-1.25-0.06-0.35 1.19-2.6 8.63-3.38 11.03zm-101.12 163.14c-0.39-0.26-0.59-0.39-0.98-0.66q-1.48 2.54-2.92 4.87 1.75-1.95 3.9-4.21zm26.19-36.92q-0.18 0.31-0.34 0.61c-1.58 2.73-3.37 5.37-4.92 7.87-3.09 4.98-6.36 9.41-9.04 13.26-2.68 3.84-5.31 7.03-7.31 9.57-1.73 2.21-3.12 3.9-4.08 5.09 0.43-0.43 4.54-4.77 6.34-6.63 1.78-1.85 3.79-3.75 5.8-5.79 4.02-4.09 8.6-8.48 13.41-13.14 12.52-12.14 27.6-26.13 42.88-41.38-0.11-0.23-0.18-0.34-0.3-0.56-20.31 18.89-36.17 30.94-40.85 34.69-0.64-1.45-0.96-2.16-1.59-3.59z"/>
			<path id="&lt;Path&gt;" class="s0" d="m535.22 946.05c-3.68 2.1-11.66 5.99-22.67 11.17-5.48 2.57-11.87 5.71-18.86 8.59-6.99 2.86-14.74 5.97-22.94 9.07-4.08 1.53-8.38 3.28-12.72 4.67-4.36 1.41-32.19 9.98-34.6 10.68q-3.62 0.88-7.26 1.75c-9.74 2.32-19.74 4.58-29.84 6.71-9.98 1.65-20.07 3.18-30.12 4.55-3.02 0.42-4.52 0.62-7.54 1.01-2.95 0.25-31.65 2.19-36.39 2.43-4.67 0.1-9.2-0.07-13.68-0.11-17.96-0.1-34.42-1.77-48.58-3.49-28.03-3.42-49.08-7.27-55.11-8.33-1.08 1.61-1.63 2.42-2.72 4.03 6 1.1 26.9 4.97 55.1 8.39 14.29 1.74 30.87 3.42 49.17 3.51 4.54 0.03 9.15 0.19 13.89 0.09 4.8-0.24 33.85-2.23 36.84-2.49 3.05-0.4 4.57-0.6 7.63-1.03 10.17-1.4 20.39-2.96 30.49-4.64 10.23-2.17 20.34-4.46 30.19-6.83q3.69-0.89 7.34-1.79c2.45-0.71 30.61-9.42 35.01-10.84 4.39-1.42 8.74-3.19 12.86-4.75 8.29-3.14 16.12-6.3 23.19-9.21 7.08-2.92 13.53-6.1 19.06-8.71 11.14-5.26 19.17-9.18 22.91-11.3 47.61-26.54 92.85-56.75 132.4-93.54 32.74-30.46 63.64-63.78 90.92-99.67 11.58-15.25 21.77-29.57 30.14-42.29 8.36-12.72 15.53-23.88 20.99-33.08 10.91-18.41 16.71-28.89 16.71-28.89 0 0-5.97 10.42-17.15 28.7-5.59 9.14-12.9 20.22-21.41 32.84-8.51 12.61-18.84 26.82-30.55 41.91-27.49 35.42-58.49 68.39-91.26 98.51-39.39 36.2-84.25 66.08-131.44 92.38z"/>
			<path id="&lt;Path&gt;" class="s0" d="m514.93 560.9c-4.16 6.79-112.61 174.71-115.89 180.09-1.72 2.67-3.03 5.47-4.52 8.22-1.5 2.74-3.05 5.58-4.54 8.37-12.1 22.58-22.66 46.53-33.09 70.14-5.22 11.84-10.76 23.7-16.52 35.28-5.77 11.61-11.66 23-19.14 33.73-14.7 21.08-33.09 39.69-53.7 54.91-19.56 14.45-39.41 24.65-54.85 31.55-7.73 3.46-14.62 5.97-20.07 8.05-5.52 1.91-9.68 3.31-12.28 4.18 0.37 1.46 0.56 2.2 0.93 3.66 2.66-0.88 6.92-2.31 12.57-4.25 5.58-2.12 12.63-4.72 20.56-8.27 15.82-7.07 36.18-17.56 56.24-32.45 21.11-15.67 39.91-34.82 54.91-56.51 7.64-11.04 13.59-22.69 19.3-34.31 5.7-11.6 11.18-23.51 16.35-35.38 10.23-23.46 20.61-47.28 32.52-69.71 1.47-2.76 2.99-5.57 4.45-8.28 1.48-2.72 2.75-5.49 4.45-8.13 3.21-5.32 6.28-10.62 9.27-15.74 2.99-5.12 6.38-10.1 9.37-14.95 1.5-2.44 79.36-121.29 83.66-128.19 4.33-6.91 56.46-94.16 71.43-120.73 13.71-24.31 145.36-273.63 145.36-273.63 0 0-8.82 16.18-11.33 20.54-2.5 4.33-5.17 9.68-8.32 15.41-17.61 32.04-114.12 212.24-127.97 236.53-15.14 26.53-54.97 93.05-59.15 99.87z"/>
			<path id="&lt;Path&gt;" class="s0" d="m823.51 610.52c-8.54 15.83-18.45 32.93-29.83 50.7-12.09 18.87-25.06 37.59-38.97 54.9-31.86 39.67-67.71 75.57-107.96 106.13-3.1 2.34-9.97 7.32-19.49 13.95-4.75 3.29-10.2 7.22-16.3 11.09-6.09 3.86-12.88 7.97-20.06 12.31-32.93 19.86-68.21 36.33-103.48 49.7-18.21 6.92-37.57 12.98-55.18 17.57-8.82 2.31-17.48 4.72-25.69 6.52-8.19 1.8-16.05 3.4-23.37 4.87-14.67 2.94-27.38 4.8-37.17 6.19-9.78 1.39-16.71 2.25-19.86 2.63-0.51 1.72-0.78 2.59-1.3 4.3 3.16-0.39 10.15-1.21 19.98-2.6 9.85-1.39 22.62-3.25 37.41-6.24 7.36-1.48 15.29-3.09 23.56-4.92 8.25-1.83 16.99-4.26 25.88-6.6 17.75-4.65 37.28-10.8 55.65-17.79 35.57-13.55 71.17-30.25 104.38-50.34 7.23-4.39 14.07-8.56 20.21-12.45 6.14-3.91 11.63-7.88 16.42-11.21 9.59-6.69 16.51-11.71 19.63-14.1 40.71-30.94 76.8-67.2 108.77-107.48 13.88-17.49 26.79-36.42 38.78-55.5 11.29-17.94 21.05-35.16 29.44-51.12 13.22-25.17 25.54-51.17 35.78-77.43 7.2-18.5 10.65-29.26 10.65-29.26 0 0-3.63 10.72-11.13 29.17-10.63 26.13-23.25 51.98-36.75 77.01z"/>
			<path id="&lt;Path&gt;" class="s0" d="m651.93 844.36c-2.22 1.99-4.53 3.94-6.86 5.81-2.33 1.87-16.59 13.27-21.46 17.02-9.72 7.52-20.03 14.64-30.39 21.75-10.34 7.11-21.44 13.62-32.22 20.35-3.26 2.05-10.37 6.02-20.24 11.35-4.93 2.67-10.63 5.82-16.87 8.92-6.21 3.07-13.21 6.37-20.59 9.74-33.75 15.45-68.62 26.66-104.58 36.04-4.68 1.23-9.28 2.11-13.83 2.91-4.53 0.81-9.19 1.77-13.6 2.3-4.45 0.55-8.92 1.11-13.27 1.62-4.39 0.53-8.67 0.78-12.88 1.1-16.82 1.29-32.59 1.36-46.41 1.49-6.93 0.07-51.57 0.45-54.62 0.49-0.66 1.67-0.99 2.51-1.66 4.19 3.01-0.03 47.33-0.37 54.25-0.45 13.85-0.13 29.68-0.2 46.73-1.54 4.28-0.33 8.59-0.57 13.04-1.11 4.46-0.54 9-1.11 13.51-1.67 4.5-0.56 9.28-1.55 13.91-2.37 4.66-0.83 9.36-1.73 14.09-2.99 36.35-9.55 71.58-20.92 105.69-36.6 7.45-3.44 14.5-6.75 20.77-9.88 6.3-3.14 12.05-6.33 17.02-9.03 9.95-5.4 17.12-9.41 20.41-11.48 10.88-6.79 22.08-13.35 32.51-20.53 10.44-7.19 20.83-14.41 30.63-22.02 4.9-3.81 19.27-15.36 21.61-17.28 2.35-1.89 4.67-3.87 6.91-5.89 8.88-8.06 17.88-15.96 25.99-24.07 28.89-28.86 55.96-59.8 80.2-93.09 16.26-22.34 31.52-45.52 45.66-69.26 10-16.82 15.2-26.39 15.2-26.39 0 0-5.36 9.49-15.64 26.2-14.49 23.54-30.01 46.5-46.52 68.66-24.46 32.87-51.66 63.44-80.6 92-8.1 7.99-17.04 15.76-25.89 23.71z"/>
			<path id="&lt;Path&gt;" class="s0" d="m757.65 649.91c-6.87 10.77-14.61 21.49-22.31 32.08-2.32 3.18-7.71 9.78-14.93 18.82-7.22 9.06-17.27 20.7-28.96 32.66-27.21 27.83-57.96 53.67-90.03 75.37-8.24 5.59-17.22 11.06-25.87 15.78-4.31 2.36-8.63 4.9-12.89 7.03-4.28 2.15-8.59 4.27-12.75 6.34-4.17 2.09-8.38 3.9-12.45 5.69-4.07 1.79-8.14 3.6-12.06 5.16-7.82 3.08-15.49 6.05-22.53 8.45-28.26 9.66-49.22 14.63-55.35 16.26-0.3 1.77-0.45 2.65-0.75 4.42 6.16-1.56 27.23-6.55 55.83-16.33 7.11-2.45 14.88-5.46 22.8-8.59 3.98-1.58 8.1-3.43 12.23-5.24 4.14-1.83 8.4-3.68 12.64-5.79 4.22-2.1 8.59-4.27 12.93-6.46 4.34-2.17 8.72-4.75 13.1-7.16 8.77-4.82 17.9-10.39 26.27-16.08 32.41-22.03 63.48-48.24 90.96-76.46 11.81-12.13 21.93-23.92 29.21-33.09 7.28-9.16 12.71-15.83 15.06-19.06 7.78-10.69 15.59-21.54 22.5-32.42 3.46-5.44 6.86-10.98 10.13-16.44 3.26-5.44 6.62-10.94 9.53-16.42 2.91-5.49 11.52-21.91 12.91-24.61 1.38-2.69 2.72-5.45 3.92-8.14 2.4-5.44 4.85-10.87 7.17-16.25 2.32-5.38 4.59-10.77 6.55-16 13.78-36.56 24.93-75.13 31.52-114.01 0.69-4.06 1.44-8.07 1.98-11.92 0.55-3.84 3.16-25.44 3.83-31.88 0.93-12.72 1.72-23.81 1.87-32.61 0.3-17.42-0.13-27.3-0.13-27.3 0 0 0.24 9.96-0.39 27.53-0.32 8.86-1.29 20-2.41 32.74-0.76 6.44-3.7 28.08-4.29 31.91-0.59 3.85-1.4 7.85-2.15 11.91-7.05 38.65-17.99 76.76-32.51 113.36-1.96 5.26-4.26 10.52-6.6 15.83-2.33 5.31-4.79 10.68-7.2 16.04-1.19 2.68-2.54 5.4-3.93 8.07-1.39 2.66-9.98 18.89-12.89 24.32-2.9 5.41-6.26 10.85-9.51 16.24-3.24 5.39-6.62 10.88-10.05 16.25z"/>
			<path id="&lt;Path&gt;" class="s0" d="m671.45 331.93c-9.78 24.92-19.83 49.88-30.13 74.46-11.24 26.83-23.04 53.97-35.72 79.93-13.5 27.66-28.92 55.65-42.72 83.14-2.12 4.22-6.97 13.39-12.98 25.94-1.51 3.15-3.22 6.54-5.02 10.11-1.58 3.63-8.92 19.62-10.75 24-1.7 4.38-3.72 8.92-5.39 13.62-3.67 9.4-7.07 19.45-10.5 29.79-3.41 10.28-6.82 21.23-10.25 32.28-7.16 23.09-14.92 46.27-24.6 68.44-5.03 11.51-11.06 22.99-17.55 34.15-6.48 11.14-13.72 22.05-21.36 32.42-14.59 19.79-31.3 38.04-49.75 54.26-3.37 2.97-6.72 5.75-10.05 8.44 1.02-0.98 2.07-1.94 3.02-2.94 18.79-19.71 37.03-41.24 51.44-64.44 19.1-30.74 35.42-63.51 48.56-97.94 9.64-25.28 14.54-41.01 14.54-41.01 0 0-1.46 3.93-4.23 11.02-2.77 7.09-6.83 17.34-12.1 29.96-14.2 33.95-30.97 66.65-50.21 97.27-14.39 22.88-32.62 44.04-51.34 63.42-11.42 11.81-25.9 22.14-38.23 30.24 3.9-2.98 7.9-6.15 11.92-9.57 14.01-11.92 28.19-26.52 41.36-42.58 6.59-8.02 13.02-16.43 19.17-25 3.06-4.27 11.8-16.95 13.57-19.59 1.69-2.66 2.53-4.01 4.2-6.68 5.7-8.93 10.76-18.01 15.39-26.9 4.58-8.8 8.88-17.84 12.76-26.46 7.8-17.27 14.54-33.7 20.74-48.23 1.55-3.63 79.21-179.56 81.46-184.34 9.09-19.23 19.54-37.51 29.18-54.46 9.63-16.96 18.75-32.86 26.74-47.57 8-14.73 14.95-28.35 20.63-40.5 5.68-12.15 10.19-22.93 13.52-31.77 1.66-4.43 3.09-8.42 4.32-11.87 1.13-3.46 5.1-16.06 5.1-16.06 0 0-4.18 12.54-5.36 15.99-1.29 3.42-2.78 7.39-4.51 11.79-3.46 8.79-8.1 19.47-13.93 31.52-5.83 12.05-12.93 25.56-21.1 40.18-8.15 14.62-17.42 30.43-27.26 47.36-9.82 16.92-20.14 35.12-29.83 54.64-2.29 4.92-111.88 250.66-116.47 259.39-4.63 8.78-9.69 17.76-15.33 26.51-1.66 2.63-2.49 3.95-4.16 6.58-1.78 2.6-10.53 15.17-13.6 19.42-6.15 8.49-12.55 16.79-19.08 24.7-13.07 15.81-27.04 30.07-40.72 41.66-10.67 9.04-21.09 16.4-30.21 22.2 6.54-5.04 13.47-10.93 20.48-17.6 12.09-11.52 24.3-25.31 35.99-40.17 5.85-7.44 11.66-15.19 17.32-23.01 5.66-7.85 11.62-16.04 16.36-24.23 17.27-29.77 31.46-61.92 46.78-93.04 1.62-3.31 3.11-6.56 4.7-9.61 1.57-3.07 20.84-39.7 22.41-42.72 10.48-20.26 21.08-40.53 29.55-60.1 8.46-19.52 17.53-38.28 26.52-56.11 8.99-17.81 95.92-183.98 95.92-183.98 0 0-89.27 165.39-98.45 183.25-9.18 17.84-18.49 36.78-27.09 56.38-8.55 19.46-19.16 39.6-29.68 59.88-1.57 3.03-25.84 49.25-27.5 52.59-15.46 31.03-29.79 63.12-47.18 92.76-1.65 2.8-3.52 5.6-5.38 8.38q1.03-1.71 2.05-3.41c1.46-2.42 2.97-4.91 4.36-7.39 1.6-2.97 2.39-4.46 3.96-7.44 10.53-19.9 18.75-39.96 26.73-58.91 7.98-18.95 15.92-36.9 23.95-52.64 10.62-20.82 215.24-423.97 215.24-423.97 0 0-4.94 11.01-14.87 29.49-2.48 4.6-5.07 9.94-7.98 15.66-2.9 5.72-6.08 11.99-9.63 18.47-3.55 6.46-7.06 13.73-10.98 21.14-1.96 3.7-105.94 198.09-108.86 203.84-11.94 23.54-23.37 47.89-34.97 71.84-10.21 21.09-20.71 42.12-31.43 62.93-8.21 15.94-16.32 34.08-24.45 53.11-8.11 19.03-16.4 38.98-26.92 58.62-1.57 2.95-2.35 4.42-3.94 7.35-1.4 2.45-2.89 4.88-4.35 7.28-2.92 4.84-5.89 9.65-8.97 14.43-6.14 9.52-12.58 18.85-19.31 27.73-6.72 8.87-13.85 17.37-21.11 25.2-7.26 7.82-14.84 15.08-22.36 21.53-13.14 11.29-26.17 20.19-37.27 26.77 14.13-10.56 29.35-23.98 42.03-38.33 21.83-24.7 42.02-50.72 59.08-79.07 1.74-2.85 3.45-5.72 5.13-8.53 1.69-2.82 3.06-5.69 4.52-8.51 2.9-5.55 5.64-11.2 8.3-16.68 2.67-5.47 5.19-10.89 7.49-16.1 1.14-2.62 2.28-5.24 3.39-7.79 1.11-2.57 2.37-5.12 3.5-7.62 9.11-20.03 17.92-38.17 25.4-53.37 7.49-15.2 24.12-49.34 24.12-49.34 0 0-17.86 33.91-25.79 49.08-7.93 15.15-17.22 33.28-26.74 53.4-1.19 2.51-2.49 5.07-3.66 7.64q-1.73 3.87-3.54 7.83c-2.39 5.27-4.98 10.63-7.67 16.06-2.69 5.39-5.46 10.97-8.37 16.5-1.47 2.78-2.84 5.62-4.51 8.42-1.69 2.78-3.41 5.62-5.11 8.44-2.38 3.93-11.07 18.35-24.39 36.38 13.18-20.1 22.83-40.09 30.28-56.55 9.44-20.84 15.87-36.55 18.03-41.36 7.08-15.79 14.09-31.81 22.06-46.59 8-14.86 16.45-29.31 24.2-43.04 13.75-24.36 79.03-141.2 79.03-141.2 0 0-3.62 6.62-10.6 18.13-3.5 5.77-7.44 13.06-12.39 21.25-2.48 4.1-4.99 8.56-7.69 13.26-2.7 4.7-67.52 115.98-75.73 130.99-8.19 14.97-15.35 31.15-22.51 47.01-2.17 4.82-8.84 20.53-18.29 41.36-11.62 25.61-25.55 49.68-41.64 71.77-8.87 12.17-20.55 24.22-31.23 35.18-2.65 2.72-5.49 5.38-8.19 7.98-2.7 2.6-5.42 5.15-8.17 7.54-0.88 0.77-2.59 2.27-2.59 2.27 0 0 23.48-22.89 33.8-36.19 1.73-2.23 3.58-4.48 5.2-6.76 1.61-2.26 3.2-4.63 4.8-6.96q2.38-3.51 4.74-7.05 2.25-3.59 4.41-7.19c5.75-9.55 10.85-19.48 15.56-29.33 9.39-19.69 17.3-39.48 25.43-58.13 8.1-18.6 16.79-36.21 26.28-51.53 11.78-20.38 68.57-119.71 75.02-130.82 12.51-21.52 25.94-43 39.07-64.4 11.96-19.5 23.82-39.23 34.95-59.14 10.49-18.79 20.16-36.57 29.1-52.72 14.23-25.73 28.46-51.68 41.77-77.96 4.77-9.4 14.51-29.53 14.51-29.53 0 0-10.03 19.96-14.92 29.3-13.66 26.09-28.19 51.89-42.68 77.46-9.1 16.06-19.01 33.89-29.64 52.54-11.3 19.84-23.31 39.48-35.41 58.93-13.29 21.4-26.89 42.91-39.53 64.47-6.53 11.13-12.96 22.81-20.02 34.32-6.53 11.68-13.23 23.5-20.35 35.36-11.44 20.62-23.38 40.97-35.28 61.35-9.61 15.39-18.62 33.47-26.86 52.15-8.28 18.78-16.31 38.57-25.78 58.11-4.73 9.78-9.82 19.57-15.53 28.97q-2.16 3.54-4.38 7.05c-1.56 2.32-7.86 11.53-9.43 13.74-1.61 2.23-3.44 4.44-5.14 6.62-13.67 17.47-29.54 33.05-45.31 45.45-3.94 3.1-8 5.95-11.8 8.67-1.9 1.37-3.77 2.77-5.67 4-1.92 1.22-12.99 8.03-16.36 10.06-3.51 1.86-16.84 8.74-17.04 8.85-0.21 0.11-0.39 0.18-0.11 0.07-0.44 0.18-16.6 6.7-18.67 7.52 0.31 1.18 0.46 1.78 0.76 2.96-1.98-0.19-3.59-0.34-4.72-0.42-0.99 1.63-1.49 2.45-2.48 4.08 60.44 6.27 119.65 4.42 179.76-4.62 42.86-6.73 85.29-20.21 123.71-39.31 23.14-11.5 46.34-24.07 67.7-38.6 24.76-16.85 49.19-35.28 71.64-54.75 21.07-18.28 42.13-38.5 61.12-58.88 32.36-34.73 62.01-73.92 86.91-115.2 10.55-17.49 18.81-34.07 26.08-48.55 6.68-14.6 12.12-27.33 16.25-37.75 7.63-20.89 11.36-32.6 11.36-32.6 0 0-3.91 11.7-11.88 32.56-4.27 10.41-9.87 23.09-16.71 37.59-7.44 14.42-15.86 30.86-26.54 48.21-25.16 40.82-54.92 79.6-87.29 113.97-39.34 41.76-84.28 79.98-132.12 112.54-21.12 14.37-44.09 26.77-66.99 38.11-37.93 18.78-79.79 32.03-122.09 38.62-57.4 8.58-114.3 11.02-172.1 5.15 2.18-0.85 16.91-6.8 17.32-6.97 0.64-0.25 0.79-0.35 0.94-0.42 0.21-0.11 0.32-0.16 0.54-0.27 0.7-0.36 12.13-6.27 14.98-7.78-4.1 2.3-7.18 3.93-8.85 4.88 0.85 1.27 1.27 1.91 2.11 3.18 1.19-0.68 3.1-1.69 5.54-3.04q0.04 0.05 0.07 0.1c1.01-0.54 2.66-1.43 4.85-2.63-0.62 1.63-0.92 2.44-1.55 4.07 2.41-0.07 32.29-0.98 43.34-1.24 26.87-0.6 54.42-2.21 79.89-6.63 27.63-4.79 56.37-13.25 83.49-22.76 11.81-4.15 22.33-8.48 30.37-12 8.02-3.5 13.83-5.97 16.54-7.32 63.67-31.37 122.22-70.69 173.08-119.65 4.95-4.75 9.61-9.55 13.93-14.03 4.3-4.48 8.42-8.73 12.09-12.85 7.33-8.23 13.66-15.34 18.57-21.36 9.81-11.99 15.06-18.82 15.06-18.82 0 0-5.39 6.71-15.43 18.53-5.03 5.92-11.45 12.9-18.89 20.99-3.73 4.06-7.88 8.23-12.25 12.63-4.35 4.39-9.06 9.09-14.04 13.76-51.07 47.82-109.37 86.48-172.47 117.55-2.7 1.34-8.46 3.78-16.41 7.22-7.95 3.46-18.29 7.55-30.07 11.81-26.94 9.75-55.33 17.65-82.5 22.3-25.23 4.32-52.51 5.84-79.11 6.4-11.04 0.24-40.88 1.18-43.39 1.26q2.92-1.59 6.98-3.84c0.62-0.36 1.33-0.78 1.99-1.17 0.04 0.08 0.05 0.12 0.09 0.2 1.47-0.68 3.59-1.67 6.25-2.92-0.46 0.9-0.68 1.35-1.14 2.26 1.78 0.03 17.3 0.08 20.85 0.06 3.56-0.04 7.57-0.3 11.78-0.52 4.22-0.22 8.76-0.53 13.5-0.85 4.78-0.45 9.79-0.97 14.92-1.51 10.25-1.08 21.27-2.72 32.23-4.45 33.12-5.22 66.26-13.6 97.47-24.82 47.97-17.25 94.45-39.63 137.34-68.2 8.43-5.62 16.08-10.71 22.62-15.55 6.54-4.83 30.71-23.6 30.71-23.6 0 0-24.5 18.03-31.08 22.68-6.59 4.66-14.29 9.55-22.74 14.96-42.95 27.48-89.23 49.3-136.7 66.3-30.9 11.05-63.75 19.19-96.54 24.25-10.87 1.67-21.84 3.26-31.97 4.3-5.07 0.51-10.03 1.02-14.76 1.45-4.67 0.31-9.16 0.6-13.32 0.8-4.16 0.21-8.1 0.47-11.61 0.49-3.49 0.03-15.41 0.02-17.45 0 2.08-0.98 4.33-2.16 6.77-3.46 2.11-1.1 4.44-2.33 6.82-3.67 0.06 0.14 0.1 0.21 0.16 0.35 1.35-0.68 3.34-1.69 5.87-2.99 0.2 0.46 0.3 0.7 0.5 1.15 1.68-0.82 4.34-2.09 7.75-3.79-0.49 1.69-0.75 2.54-1.25 4.24 3.04-0.26 13.44-1.08 27.51-2.63 14.09-1.58 32.43-3.62 50.37-6.91 26.8-4.92 53.91-10.91 80.22-18.73 21.59-6.43 43.01-14.08 63.69-23.14 19.52-8.56 37.02-17.69 51.3-26.27 7.15-4.29 13.64-8.36 19.16-12.12 5.52-3.78 10.33-7.06 14.14-9.93 7.59-5.74 11.76-8.99 11.76-8.99 0 0-4.25 3.08-11.96 8.54-3.85 2.73-8.71 5.85-14.27 9.44-5.54 3.57-12.06 7.42-19.2 11.5-14.26 8.13-31.67 16.76-51.02 24.96-19.36 8.21-40.81 15.84-63.16 22.5-26.14 7.79-53.07 13.49-79.67 18.25-17.9 3.2-35.77 5.07-49.97 6.63-14.12 1.56-24.52 2.38-27.62 2.63 3.04-1.52 6.64-3.4 10.79-5.71 0.67 0.87 1 1.31 1.68 2.19 2.34-1.41 9.14-5.48 18.5-11.32 1.45-0.77 7.67-4.09 9.31-4.98 1.36-0.79 2.79-1.64 4.24-2.49-0.65 1.49-0.98 2.24-1.64 3.71 2.27-0.12 7.34-0.36 14.38-0.93 3.54-0.28 7.6-0.45 12.17-1.08 4.58-0.66 9.67-1.38 15.03-2.27 25.91-4.27 52.18-10.83 76.85-18.31 25.98-7.87 52.61-17.78 77.56-29.63 10.92-5.18 20.54-9.96 27.9-14.01 7.32-4.01 12.72-6.94 15.16-8.35 31.31-18.24 61.7-39.22 89.64-63.35 23.34-20.16 45.25-42.28 64.81-65.9 16.84-20.31 29.21-38.2 37.14-50.64 7.93-12.41 12.11-19.53 12.11-19.53 0 0-4.33 7.02-12.53 19.32-8.19 12.28-20.83 29.9-37.85 49.86-19.73 23.14-41.67 44.84-64.98 64.64-27.83 23.64-57.99 44.37-89 62.39-2.4 1.41-7.74 4.29-15.01 8.26-7.29 3.98-16.83 8.69-27.65 13.79-24.72 11.66-51.1 21.4-76.82 29.13-24.46 7.36-50.51 13.8-76.18 18-5.27 0.86-10.28 1.57-14.78 2.2-4.49 0.63-8.45 0.78-11.91 1.07-6.16 0.51-10.66 0.75-13.16 0.91 4.48-2.64 9.31-5.68 14.37-9.08-0.09 0.65-0.14 0.96-0.24 1.6 2.06-0.36 6.59-1.32 12.99-2.56 3.18-0.53 44.2-6.76 55.54-8.61 5.66-0.93 11.63-2.12 17.63-3.34 6.06-1.39 12.2-2.79 18.37-4.57 37.63-10.11 74.41-25.56 107.71-44.89 51.62-29.95 99.35-66.62 140.86-110.41 8.07-8.51 15.28-16.49 21.34-23.61 6.07-7.11 11.28-13.37 15.37-18.57 8.18-10.42 12.57-16.31 12.57-16.31 0 0-4.55 5.79-12.92 16-4.2 5.1-9.52 11.23-15.69 18.2-6.18 6.97-13.48 14.77-21.64 23.11-41.78 42.72-89.38 78.78-140.51 108.39-32.88 19.02-69.26 34.15-106.43 44.01-6.1 1.74-12.1 3.09-18.05 4.45-5.91 1.18-11.76 2.33-17.38 3.24-11.32 1.81-56.97 8.78-57.54 8.89 4.41-2.76 10.39-6.61 17.45-11.63q0.29-0.22 0.57-0.42c-0.19 0.61-0.29 0.91-0.48 1.52 3.16-0.33 14.02-1.55 28.61-3.35 3.62-0.45 7.63-1.01 11.81-1.76 4.19-0.75 8.54-1.32 13.09-2.42 4.56-1.08 9.29-2.27 14.05-3.51 4.75-1.23 9.58-2.73 14.38-4.16 4.8-1.43 19.14-5.89 21.47-6.72q3.53-1.26 6.98-2.54c9.17-3.38 17.86-6.74 25.55-9.79 15.37-6.7 26.86-12.04 30.29-13.75 40.75-20.21 79.88-45.34 115.23-75.46q5.2-4.44 9.85-8.47c3.09-2.69 5.99-5.29 8.6-7.82 5.2-5.05 24.69-24.42 24.69-24.42 0 0-19.92 18.72-25.2 23.59-2.65 2.44-5.6 4.96-8.72 7.55-3.13 2.58-6.45 5.34-9.94 8.19-35.51 29.01-74.55 53.65-114.8 73.49-3.39 1.67-14.79 6.91-30.01 13.49-7.62 2.99-16.22 6.25-25.31 9.56q-3.42 1.27-6.92 2.49c-2.3 0.81-4.66 1.51-7.01 2.24-4.71 1.48-9.51 2.93-14.28 4.33-4.75 1.4-9.59 2.87-14.24 4.06-4.63 1.18-9.23 2.32-13.68 3.36-4.44 1.05-8.71 1.6-12.79 2.32-4.1 0.72-8.02 1.27-11.66 1.7-11.02 1.31-20.01 2.39-25.05 2.96 10.26-7.7 22.27-17.66 34.25-29.9 14.01-14.3 27.97-31.68 40.04-50.45 6.06-9.41 11.78-19.26 17.11-29.23q3.99-7.5 7.72-15.11c2.48-5.07 4.75-10.22 7-15.33 8.98-20.35 15.47-41.06 21-60.38 5.53-19.29 11-37.81 16.43-53.97 5.47-16.27 10.78-30.55 15.59-41.59 2.41-5.51 73.71-159.47 76.12-165.03 17.28-39.91 34.84-80.12 51.06-120.58 1.75-4.37 15.98-40.73 18.6-47.88 5.61-14.15 9.96-26.69 13.66-36.83 7.39-20.26 11.18-31.97 11.18-31.97 0 0-3.95 11.65-11.61 31.77-3.82 10.07-8.33 22.56-14.1 36.62-2.69 7.14-17.31 43.34-19.11 47.7-16.67 40.37-34.54 80.5-52.1 120.36-2.45 5.55-74.54 159.85-76.99 165.43-4.91 11.13-10.38 25.7-15.95 42.05-5.55 16.3-11.16 34.99-16.79 54.3-5.64 19.33-12.19 39.83-21.17 59.91-2.25 5.05-4.49 10.12-6.97 15.13q-3.74 7.54-7.73 14.96c-5.31 9.85-11.02 19.57-17.02 28.83-11.98 18.47-25.71 35.42-39.42 49.36-13.73 13.92-27.44 24.87-38.42 32.71-2.01 1.45-3.93 2.76-5.76 4 4.1-3.27 8.27-6.73 12.44-10.41 18.75-16.54 35.71-35.2 50.51-55.4 7.72-10.53 15.04-21.68 21.54-32.95 6.52-11.31 12.61-23.01 17.64-34.67 9.62-22.3 17.31-45.59 24.4-68.81 3.37-11.03 6.72-21.92 10.05-32.12 3.36-10.27 6.68-20.22 10.28-29.5 1.63-4.65 3.6-9.12 5.25-13.44 1.79-4.32 3.81-8.47 5.55-12.4 1.74-3.94 3.44-7.73 4.99-11.31 1.78-3.55 3.46-6.92 4.94-10.04 5.93-12.43 10.73-21.57 12.83-25.77 13.75-27.44 29.09-55.4 42.48-83.05 12.6-25.99 24.3-53.22 35.4-80.12 10.15-24.59 104.82-276.81 104.82-276.81 0 0-68.45 179.51-77.12 201.57z"/>
			<path id="&lt;Path&gt;" class="s0" d="m284.05 954.22c0 0 0.72-0.55 1.08-0.82q-0.24 0.2-0.48 0.38c-0.21 0.16-0.6 0.44-0.6 0.44z"/>
			<path id="&lt;Path&gt;" class="s0" d="m265.85 966.73c0 0-3.8 2.39-5.51 3.47-1.07 0.65-3.1 1.83-3.1 1.83z"/>
		</g>
		<path id="&lt;Path&gt;" class="s0" d="m763.68 388.18c-8.01 28.61-17.2 56.96-27.68 84.7-12.01 31.77-26.03 63.05-40.93 93.33-19.36 39.33-42.58 77.59-67.19 113.77-6.76 9.93-14.17 20.02-21.73 30.14-7.55 10.11-15.58 20.21-23.85 30.36-8.27 10.15-17.11 20.22-26.16 30.23-9.04 10.01-18.61 19.72-28.43 29.55-5.08 4.88-20.62 19.31-21.41 20.03-0.75 0.64-7.27 6.23-10 8.52-5.47 4.58-10.96 9.23-16.69 13.67q-8.62 6.68-17.44 13.26c-11.74 8.76-24.15 17.26-36.6 25.42-12.45 8.17-25.53 16.34-38.68 23.81-54.2 30.8-112 56.86-170.84 75.92-23.03 7.47-46.45 13.83-70.17 19.25-20.62 9.59-42.46 16.93-64.54 23.19-14.85 4.2-29.61 8.64-44.34 13.14q1.26-0.01 2.52-0.02c61.69-7.67 122.2-20 180.23-39.16 60.18-19.86 119.24-46.89 174.56-78.79 13.43-7.73 26.85-16.19 39.54-24.68 12.7-8.53 25.32-17.39 37.35-26.6 6.01-4.59 11.97-9.24 17.83-13.9 5.87-4.66 11.54-9.59 17.17-14.4 2.81-2.42 9.59-8.37 10.6-9.3 0.79-0.74 4.35-4.09 5.92-5.57 5.24-4.98 10.49-9.96 15.47-14.96 10.05-10.08 19.89-20.74 28.95-31.14 9.03-10.37 17.86-20.85 26.06-31.31 8.21-10.48 16.18-20.89 23.61-31.27 7.43-10.4 14.68-20.8 21.27-31 23.88-36.95 46.22-76.04 64.49-116.26 13.98-30.78 26.8-62.42 37.62-94.68 8.97-26.72 14.91-48.14 18.6-62.76 3.69-14.6 5.45-22.47 5.45-22.47 0.05-0.22-0.03-0.39-0.17-0.4-0.15-0.01-0.32 0.16-0.39 0.38z"/>
	</g>
</svg>